/* XPM */
static char *result[] = {
/* columns rows colors chars-per-pixel */
"32 32 221 2 ",
"   c #6F555C",
".  c #6E545B",
"X  c #6E555C",
"o  c #6B5258",
"O  c #584449",
"+  c #47363B",
"@  c #584C52",
"#  c #5B5055",
"$  c #5B4E55",
"%  c #5B4F55",
"&  c #5B5057",
"*  c #5C5157",
"=  c #4D4044",
"-  c #533F45",
";  c #624B51",
":  c #5F4A50",
">  c #0B0909",
",  c #4F5C61",
"<  c #64767B",
"1  c #67787D",
"2  c #607074",
"3  c #616E76",
"4  c #616D76",
"5  c #617175",
"6  c #617276",
"7  c #60747D",
"8  c #637780",
"9  c #6C7B7D",
"0  c #596667",
"q  c #252A2D",
"w  c #3A2D30",
"e  c #544247",
"r  c black",
"t  c #667579",
"y  c #738387",
"u  c #4E5C62",
"i  c #46535A",
"p  c #48525D",
"a  c #48535C",
"s  c #47535D",
"d  c #475560",
"f  c #4B5861",
"g  c #6C7A7C",
"h  c #7A898B",
"j  c #424B4F",
"k  c #261D1F",
"l  c #644E54",
"z  c #080606",
"x  c #596566",
"c  c #748486",
"v  c #57676F",
"b  c #495661",
"n  c #4E5866",
"m  c #4F5967",
"M  c #515C68",
"N  c #4D5765",
"B  c #515B66",
"V  c #697779",
"C  c #707E80",
"Z  c #262C2E",
"A  c #3D2F32",
"S  c #6D545B",
"D  c #5F494F",
"F  c #1E1C1F",
"G  c #161514",
"H  c #3C4B52",
"J  c #4C5F66",
"K  c #4A585E",
"L  c #4A585D",
"P  c #4B595E",
"I  c #49585E",
"U  c #48565C",
"Y  c #333A3C",
"T  c #0C0D0D",
"R  c #42363B",
"E  c #534247",
"W  c #010101",
"Q  c #374B52",
"!  c #55787E",
"~  c #577A80",
"^  c #567986",
"/  c #567987",
"(  c #557887",
")  c #4C6771",
"_  c #141D1F",
"`  c #21191B",
"'  c #20191B",
"]  c #26363D",
"[  c #5B7C89",
"{  c #5C7F8B",
"}  c #5C7F8A",
"|  c #5C7F8F",
" . c #5C7F8E",
".. c #5F8390",
"X. c #4C6974",
"o. c #56444A",
"O. c #69525A",
"+. c #0A0808",
"@. c #435E6A",
"#. c #5E8393",
"$. c #577A89",
"%. c #537482",
"&. c #527380",
"*. c #537380",
"=. c #537480",
"-. c #52737F",
";. c #557584",
":. c #5A7C8B",
">. c #1B272D",
",. c #382B2F",
"<. c #5D4950",
"1. c #486570",
"2. c #557886",
"3. c #4A6A75",
"4. c #476771",
"5. c #476770",
"6. c #486672",
"7. c #4F6F7B",
"8. c #233339",
"9. c #292022",
"0. c #5E4A50",
"q. c #020202",
"w. c #3B545D",
"e. c #496B74",
"r. c #466871",
"t. c #476A73",
"y. c #476973",
"u. c #18282C",
"i. c #2C2225",
"p. c #59464B",
"a. c #3B555F",
"s. c #4B6B76",
"d. c #486773",
"f. c #496874",
"g. c #496A74",
"h. c #496974",
"j. c #496773",
"k. c #203338",
"l. c #261D20",
"z. c #544045",
"x. c #3F5B64",
"c. c #4D6D78",
"v. c #4A6472",
"b. c #496371",
"n. c #496771",
"m. c #496770",
"M. c #4B6675",
"N. c #253A3F",
"B. c #1E1719",
"V. c #544046",
"C. c #3F5B66",
"Z. c #39535C",
"A. c #1C2B31",
"S. c #111D23",
"D. c #0C1719",
"F. c #0D181A",
"G. c #0E1A1C",
"H. c #080D10",
"J. c #3D545C",
"K. c #2A4245",
"L. c #070D10",
"P. c #1D2D34",
"I. c #0F1615",
"U. c #191F21",
"Y. c #191E21",
"T. c #191F22",
"R. c #182626",
"E. c #1E3233",
"W. c #1F181A",
"Q. c #010201",
"!. c #1A2425",
"~. c #334143",
"^. c #344143",
"/. c #384448",
"(. c #384348",
"). c #384549",
"_. c #2C3A3C",
"`. c #201A1C",
"'. c #554146",
"]. c #0F1818",
"[. c #314142",
"{. c #374245",
"}. c #364144",
"|. c #364143",
" X c #354043",
".X c #324344",
"XX c #1E292A",
"oX c #1F1A1B",
"OX c #574449",
"+X c #273235",
"@X c #334144",
"#X c #353F42",
"$X c #364043",
"%X c #374344",
"&X c #2C3536",
"*X c #241D1F",
"=X c #634C54",
"-X c #1E2529",
";X c #333D45",
":X c #384346",
">X c #3C4445",
",X c #313637",
"<X c #312629",
"1X c #2C2325",
"2X c #192023",
"3X c #283033",
"4X c #272F31",
"5X c #283032",
"6X c #232829",
"7X c #080A0B",
"8X c #5D474D",
"9X c #6B5259",
"0X c #32272A",
"qX c #050404",
"wX c #161112",
"eX c #544146",
"rX c #5D494F",
"tX c #514044",
"yX c #524146",
"uX c #554247",
"iX c #6C545A",
/* pixels */
"                                                                ",
"                                                                ",
"                                                                ",
"            . X X X X X X X X X X X X X X X X X X .             ",
"                                                                ",
"          o O + @ # $ % % % % % % % % % % % & * = - ;           ",
"    .   : > , < 1 2 3 4 4 4 4 4 4 4 4 3 5 6 7 8 9 0 q w   .     ",
"    .   e r t y u i p p p p p p p p p p a s d f g h j k   .     ",
"    .   l z x c v b n n n n n n n n n n m M N B V C Z A   S     ",
"          D F G H J K L L L L L L L L L K P I U Y T R           ",
"      .   E W Q ! ~ ^ / / / / / / / / / / ( ( / ) _ `           ",
"      .   ' ] [ { } | | | | | | | | | | | | |  ...X.r o.  .     ",
"        O.+.@.#.$.%.&.*.*.*.*.*.*.*.*.*.*.*.=.-.;.:.>.,.  S     ",
"    .   <.W 1.2.3.4.4.4.4.4.4.4.4.4.4.4.4.4.4.5.6.7.8.9.  .     ",
"    .   0.q.w.e.r.t.y.y.y.y.y.y.y.y.y.y.y.y.y.y.t.r.u.i.  .     ",
"    .   p.W a.s.d.f.g.g.g.g.g.g.g.g.g.g.g.g.g.h.f.j.k.l.  .     ",
"    .   z.r x.c.v.b.n.n.n.n.n.n.n.n.n.n.n.n.n.m.b.M.N.B.        ",
"    .   V.r C.Z.A.S.D.F.F.F.F.F.F.F.F.F.F.F.F.G.H.J.K.B.        ",
"    .   V.L.P.r r I.U.Y.Y.Y.Y.Y.Y.Y.Y.Y.Y.Y.Y.T.r R.E.W.        ",
"    .   V.Q.r !.~.^././././././././././././.(.)._.W r `.        ",
"    .   '.r ].[.{.}.|.|.|.|.|.|.|.|.|.|.|.|.|. X.XXXr oX        ",
"    .   OXW +X@X#X X X$X$X$X$X$X$X$X$X$X$X X$X X%X&Xr *X        ",
"        =Xq.-X;X:X:X:X:X:X:X:X:X:X:X:X:X:X:X:X:X>X,Xr <X  S     ",
"      .   1Xr 2X3X4X4X4X4X4X4X4X4X4X4X4X4X4X4X5X6X7Xq.8X  .     ",
"          9X0XqXr r r r r r r r r r r r r r r r r wXeX  .       ",
"              rXtXyXyXyXyXyXyXyXyXyXyXyXyXyXyXyXuXiX  .         ",
"            S                                       .           ",
"              . . . . . . . . . . . . . . . . . .               ",
"                                                                ",
"                                                                ",
"                                                                ",
"                                                                "
};
