/* XPM */
static char *ccab372d3cff45b4f8f7e47a58fd20f1RAuHbMps9D3p3Xl2[] = {
/* columns rows colors chars-per-pixel */
"64 64 102 2 ",
"   c #25180E",
".  c #2C1B0E",
"X  c #261B11",
"o  c #291C11",
"O  c #311F12",
"+  c #2F2014",
"@  c #352315",
"#  c #392314",
"$  c #472514",
"%  c #492615",
"&  c #4E2816",
"*  c #532E1B",
"=  c #5B2F19",
"-  c #5E311A",
";  c #713A1F",
":  c #433729",
">  c #45382A",
",  c #723A20",
"<  c #5E4132",
"1  c #624333",
"2  c #694432",
"3  c #62473A",
"4  c #63483A",
"5  c #6D4C3C",
"6  c #76503D",
"7  c #7C5745",
"8  c #874525",
"9  c #8A4625",
"0  c #8D4927",
"q  c #8D4A29",
"w  c #924B29",
"e  c #96502C",
"r  c #99532E",
"t  c #955531",
"y  c #9B5832",
"u  c #B65E33",
"i  c #B85F34",
"p  c #BA6135",
"a  c #C16537",
"s  c #C26638",
"d  c #C6693A",
"f  c #C86F3F",
"g  c #CA703F",
"h  c #AE6E4E",
"j  c #B66F4B",
"k  c #AA724E",
"l  c #AD7450",
"z  c #B07550",
"x  c #B57E57",
"c  c #B97E56",
"v  c #B67F58",
"b  c #867D75",
"n  c #867E78",
"m  c #CA7140",
"M  c #D77D47",
"N  c #D87D47",
"B  c #D77E49",
"V  c #D87E49",
"C  c #E07742",
"Z  c #E07844",
"A  c #8E8077",
"S  c #8E827A",
"D  c #97867B",
"F  c #98887E",
"G  c #C1815E",
"H  c #D68656",
"J  c #D78758",
"K  c #D9895A",
"L  c #FF975B",
"P  c #FE985D",
"I  c #D18960",
"U  c #DBA37F",
"Y  c #9F8D82",
"T  c #A69285",
"R  c #E4A780",
"E  c #E3AB84",
"W  c #E5A981",
"Q  c #F5B68C",
"!  c #F4B98F",
"~  c #C1BAB4",
"^  c #C9BCB3",
"/  c #C9C1BB",
"(  c #C9C1BC",
")  c #CCC4BE",
"_  c #CFC4BE",
"`  c #D0C3BB",
"'  c #D0C3BC",
"]  c #D5C9C2",
"[  c #D8CAC1",
"{  c #DCCEC6",
"}  c #DACEC8",
"|  c #F0EAE0",
" . c #F0EAE1",
".. c #F0EBE2",
"X. c #F1ECE5",
"o. c #F6F3EF",
"O. c #F5F3F0",
"+. c #F6F4F1",
"@. c #F6F5F3",
"#. c #F6F5F4",
"$. c #F7F6F4",
"%. c #F7F6F5",
/* pixels */
"] I P P P P P P P P P P P P P P P P P P P P P P P P P P P ! X.#.#.} c P P P P P Z R P P P P P P P P P P P P P P P P P P P P Q X.",
"6 e f g m m m m m m m m m m m m m m f f f f m j f f f f m V R Y F t e m m m m m m j m m f f m j f f f f m m j m m j f m f f B R ",
"* ; w w w w w w 0 w q w w w 9 q w w w w w w w w w w w w w p s # X % , w w w w w w w w w w w w w w w w w w w w w w w w w w w i Z ",
"* , w w w w w w w w w w w w w w w w e w w w w w w w w w w p s # X % , e w w w t w r w w w w w r w w w w w w e w w w r w w w i Z ",
"* , w w w e w w w w w w w w w w r w w w w w w w w w w w w s s # X & , w w w w w e w w e w r w r r w w w w r w e w e w e w w j Z ",
"* , w w w w w e e w w e w w w e w w w w w w r w w w w w w s s @ X & , r w t w t w e e w w w w w w t w r w w w e w w e w w w i Z ",
"* , w w w e w w w w w w w w w w w w w r w w w w w w w w w i j @ o & , w w w w w w w w e e w e w w w r w e w e w w w w e w w i Z ",
"* , w w w w w w w w w w e w w e w w w w w w w w w w w w w s s @ X % , w w w w w w w w w e w w e w w w w w e w e w w w w w w i Z ",
"& , w w w w w w w w w w w e w w w w e w w e w w w w w w w p d @ o % , w w w w w w w r w w w w w e w w e w e e w r w e w w w i Z ",
"* , w w w w w w w e w w w w w w w w w w w w w w w e w e w p d @ o & , w w w r w w w w w w e w w w w w w w w w e r w w e w w i Z ",
"* , w w w w w w w w w w w w e w w w w w w w e w w e w w w p s @ X % , w w w w t w w w w w w w w w w w w w w w w e w w w r w i Z ",
"* , w w w w w w w w w w w w w w w w w w w w w w w w w w w p d @ X & , w w w w w w w w w w w e w w e r w w w w w w e w e w w i Z ",
"* , w w w w w w w w w w w w w w w w w w e w w e w w e w w p s @ o & , w w w w w r w w w w w w e w w e w w w w w e w w w w w i Z ",
"* , w w w w w w w w w w w w w w w w w w w w w w w w w w w p s @ X % , w e w w w w w w w w w w w w w w w w e e w w w w e w w i Z ",
"* , w w w w w w w 0 w w w w w w w w w w w w w w w w w w w p d @ o % , w w w w w w w w r w w w w w w w w w w w w w w w w w w i Z ",
"* , w w 0 w w w w w w w w w w w w w w w w w w w w w e w w p s O o & , w w w w r w w w w e w w e w w e w w e w w e w w w w e i Z ",
"* , w w w w w w w w w w w w w w w w w w w w w w w w w w w p s O X % , w w w w w w w w w w w w w w e w w w w w w w e w w w e i Z ",
"* , w w w e w w w w w w w w w w w w w w w e w w w w w e w p m @ X & , w w w w w w w w w w w w w w w w w w w w w w w w w w w i Z ",
", * , , , , , , , , , , , , , , , , , , , , , , , , , , , q q O X % - , , , , , , , , , , , , , , , 2 , , , , , , , , , , , 0 h ",
"( 3 % % $ $ % % $ $ % % % $ $ $ % $ $ $ $ $ $ $ % % % % % % + X X X # % % % % % % % % % % % % % % % % & % % % % % % % % % % 5 _ ",
"%.n X o X X X o o o o o o o o o o o o o o o o o o o o o o o X o X X X X + X X + + X X X + X + X o o X X + X + X o + o o X . S #.",
"%.S O @ @ @ @ @ # # @ @ O O o o o X O O @ @ @ @ @ @ @ @ @ # O O @ @ # # @ @ @ # @ @ @ @ @ + X X X X @ @ @ @ @ @ @ @ @ @ @ @ F #.",
"[ c V V V V V V V V V Z V c > o X O t V V V V V V V V V V V Z V V V V V V V V V V V V V V v >   o @ r Z V V V V V V V V V Z R  .",
"7 r m m m m m m m m m m m I z O X & t m m m m m m m m m m m d m m m m m m m m m m m m m m V h O o & r m m m m m m m m m m m V R ",
"* , w 0 w w 9 w w w 9 w w i d # X $ , w w w w 0 0 w w 0 w w 0 w w w w w w 0 w w w 0 w 0 w i s @ X % , w w w 0 w w w w w w w u Z ",
"* , w w w w w w w w w w w i d O o $ , w w w w w w w w w w w w w w w w w w w w w w 0 w w w i s O o % , w w w w w w w w w w w u Z ",
"& , w w w w w w w w w w w i d # X $ , w w w w w w w w w w 0 w w w w w w w w w w w w w w w i s @ o % , w w w w w w w w w w w u Z ",
"* , w w w w w w w w w w w p d # X $ , w w w w w w w w w w w w w w w w w w 0 w w w w w w w i s @ o % , w w w w w w w w w w 0 u Z ",
"* , w w w w w w w 9 w w 9 i d O o $ , w q w w w w w w w w w w 0 0 w w w w w w w w w w w w i s @ X % , w w 0 w w 0 w w w w 0 u Z ",
"* , w w w w w w w w w w w i d $ o $ , w w w q w w w w w w w w w w w w w w w w 0 w w w w w i s @ o % , w w w w w w w w w w w u Z ",
"* , w w w w w w w w w w w i d O X % , w w w w q w 0 w w w 0 w w w w w w w 0 w w w w w w w i s O o & , w w w 0 w w w w w w 0 u Z ",
"* , w w w w w w w w w w w i d # X % , w w w w w w w w w w w w w w w w w w w w w w w w w w i s @ o & , w w w w w w w w w w w u Z ",
"= ; w w w w w w w w w w w p m O . $ ; w w w w w w w 0 w w w w 0 w w w w w w w w w w w w w i s O o % , w w w w w w w w w w 0 u C ",
"& ; w w w w 9 w w w w w w p d #   $ ; w 0 w w w w w w w w w w w w w w w w 0 w w w w w w w i d O o & , w 0 w w w w w w w w w u C ",
"= ; w 0 w w w w w w w w w i d #   % ; w w w w w w w w w w w w w w w w w w w w w w w w w w i s O o & , w w w w w w w w w w 0 u C ",
"* ; w w w w w w w 0 w w w i m O . $ ; w w w w w w w w w w w w w w w w 0 w w w 0 w w w w w i s O o & , w w w w w w w w 0 w w i C ",
"* ; w w w w w w w w w w w u m O . % , w w w w w 0 w w w w w w w 0 w w w w w w w w w w w w p s @ X & , e w w w w w w w w w w i C ",
"* ; w w w w w w w w w w w i a O X $ ; w w w w w w w 0 w w w w w w w w w w w w w w w w w w i p @ X % , w w w w w w w w w w w i C ",
"= ; w w w w w w w w w w w u m @   $ ; w w w w w w w w w w w w w w w w w w w w w w w w w w i s + o % , w w w w w w 0 w w w w u C ",
"& ; w w w w w w w w w w w i m @ o $ , w w w w w w w w w w w w w w w w w w w w w w w w w w p s @ o & , w w w w w w w w w w w i C ",
", * , , , , , , , , , , , q q O X O - , , , , , , , , , , , , , , , , , , , , , , , , , , 0 8 + X $ - , , , , , , , , , , , 8 h ",
"] 3 $ $ $ $ $ $ $ $ $ $ $ % O X o O O $ $ $ $ $ $ $ $ $ $ $ $ $ $ $ $ $ % % $ $ $ $ $ $ $ % + X X o # % $ $ % % $ % % % $ $ 7 _ ",
"#.n X o o o X X O o o X X X X X   X X o o o o o o o o o o o o o o . .   + o X X X X X X X X X X X X X o X X X X X o o o X . b O.",
"O.n O + @ @ @ @ # O O O @ @ @ @ # @ @ @ @ @ @ # @ @ @ O @ O X X o   O @ @ @ @ @ @ @ @ @ @ @ @ @ @ @ @ @ @ @ @ + O @ @ @ O O D O.",
"} c B B B B B B M M M B B B B B V V V V V B B B B B B B V v > . X O t V V B B B V B B B B B B B V V V V B B B B B B B B V V W X.",
"7 w m m m m m m m m m m m m m m m m m m m m m m m m m m m J j O o & r f m m m f m m m m m m m m m m m m m m m m m m m m m m V W ",
"* , w w q w q w 0 w w w w 0 0 w w w q w w q w w w 0 w w w u a O o % , w w w w 0 w w w w w w 0 w w q w w w w w q w w q w w w i Z ",
"* , w w w w w w w w w w w w w w w w w q w w w w w w w w w u a # o % , w w w w w w w w w w w w w w w w w w w w w w w w w w w i Z ",
"* , w w w w w w w w w w w w w w w w w w 0 w w w 0 w w w w i a # . % ; w w w w w w w w w w 9 w w w w w w 0 w w w w w w w w w u C ",
"* , w w w w w w w 0 w w w 0 w w w w w w w w w w w w w w w i a # . & ; w w w w w w w w w w w w w w w w w w w w w w w w w w 0 u C ",
"* ; w w w w w w w w 0 w w w w w w w w w w w 0 w w w w w w i a # . $ ; w w w w w w w w w w w w w w w w w w w w w w w w w w w u C ",
"* ; w w 0 w w w w w w w w w w w w w w 0 w w w w w w w w w i a O . $ ; w w w 9 w w w w w w w w w w w q w w w w w w w w 0 w w i C ",
"* ; w w w w w w w 0 w w w 0 w w w w w w w w w w w w w w w i a # . $ , w w w w w 9 w w w w w w w w w 0 w w w w w w w w w w w u C ",
"* ; w w 0 w w w w w w w w w w w w w w w w w w w w w 9 w w i p $ . $ , w w w w w w w w w w w w w w w w w w w w w w w w w 0 w u C ",
"* ; w w w w w w w w 0 w w w w w w w w w w w w 0 w w w w w i a O . % , w w w w w w w w w w 9 w w w 0 w w w w 0 w 0 w w w w w u C ",
"* ; w w w w w w w w w w w w w w w w w w 0 w w w w w w w w i a # X $ , w w w w w w 9 w w w w w w w w w w w w w w w w w w w w u C ",
"= ; w w w w w w w 0 w w w w w w w w w w w w w w w w w w w i s # o % , w w w w w 0 w w w w w w w w 0 w w w w w w w w w w w w u C ",
"= ; w w w w w w w w w w w 0 w w w w w w w 0 w w w w w w w i s # o % , w w w w w w w w w w w w w w w w w w w q w w 0 0 w w 0 u C ",
"& ; 9 w w w w w w w w w w w w w w w w w w w w 0 w w w w q i s O o % , w w w w w w w w w w w 9 w w w w w w w w w w w w w w w u C ",
"= ; w w w w w w w w w w w w w w w w w w w w w w w w w w w i s # o % , w w 0 w w w w w w w w w w w w w w w w w w w w w w w w u C ",
"& ; w w w w w w w w w w w w w w w w w w w w w w w w w w w i s O o $ , w w 0 w w w w w w w w w w w w w w w w w w w w w w w 0 u C ",
"& ; w w w w w w w w w w w w w w w w w w w w w w w w w w w i s O   $ , w w w w w w w w w w w w w w w w w w w w w w w w w w w i C ",
"1 = ; ; ; ; ; ; ; ; ; ; ; ; ; ; ; ; ; ; ; ; ; ; ; ; , ; , 9 h n b 3 * , ; ; ; ; ; ; ; ; , ; , , , , , , , , , , , , , , , , 8 j ",
"~ ; & & & & & & & & & & & & & & & & & & & & & & & & & & & 2 ^ #.O.] ; & & & & & & & & & & & & & & & % % & & & & & % & & & % , ^ "
};
