/* XPM */
static char *result[] = {
/* columns rows colors chars-per-pixel */
"32 32 124 2 ",
"   c #010000",
".  c #0B0500",
"X  c #0E0E0B",
"o  c #110C00",
"O  c #1A1706",
"+  c #171408",
"@  c #1A180C",
"#  c #1E1C14",
"$  c #161919",
"%  c #1F1E1B",
"&  c #211D1D",
"*  c #202019",
"=  c #261D25",
"-  c #232223",
";  c #282325",
":  c #21222D",
">  c #2C2A2C",
",  c #272433",
"<  c #2B2634",
"1  c #2E2B33",
"2  c #2A2638",
"3  c #2D2A3A",
"4  c #312B33",
"5  c #322E3A",
"6  c #333236",
"7  c #35333B",
"8  c #39353E",
"9  c #37383F",
"0  c #2F2940",
"q  c #332D44",
"w  c #333446",
"e  c #393644",
"r  c #363A42",
"t  c #3B3A44",
"y  c #39344A",
"u  c #3E3B4C",
"i  c #413D47",
"p  c #423E4B",
"a  c #433E51",
"s  c #3D4046",
"d  c #3E4149",
"f  c #3D4556",
"g  c #434447",
"h  c #43434C",
"j  c #45484F",
"k  c #4E4E4E",
"l  c #51504F",
"z  c #464254",
"x  c #494654",
"c  c #464A52",
"v  c #494B55",
"b  c #474558",
"n  c #494659",
"m  c #464B5B",
"M  c #4B4A5B",
"N  c #504F50",
"B  c #524C5E",
"V  c #4B5057",
"C  c #4D525D",
"Z  c #525253",
"A  c #53555C",
"S  c #5B5A5F",
"D  c #4D4E62",
"F  c #524F61",
"G  c #4D5163",
"H  c #4F576A",
"J  c #535464",
"K  c #585566",
"L  c #545965",
"P  c #5C5C66",
"I  c #535769",
"U  c #5B5769",
"Y  c #555A6B",
"T  c #5A5C6C",
"R  c #5A5F71",
"E  c #605E67",
"W  c #625E6B",
"Q  c #5C626E",
"!  c #5C6372",
"~  c #62626B",
"^  c #6C6C6C",
"/  c #626474",
"(  c #686474",
")  c #646A75",
"_  c #656B7B",
"`  c #6A6C7C",
"'  c #6A717E",
"]  c #676E80",
"[  c #696F80",
"{  c #6B7283",
"}  c #6E7688",
"|  c #6F788A",
" . c #707583",
".. c #737A86",
"X. c #707788",
"o. c #747C8B",
"O. c #787F8C",
"+. c #767E90",
"@. c #7A828E",
"#. c #778092",
"$. c #7B8392",
"%. c #7F8896",
"&. c #7E8799",
"*. c #7F899B",
"=. c #8C8C8D",
"-. c #90908F",
";. c #808795",
":. c #818996",
">. c #8E8F90",
",. c #838C9D",
"<. c #898F9C",
"1. c #8F9091",
"2. c #8B929E",
"3. c #929394",
"4. c #969798",
"5. c #989798",
"6. c #979899",
"7. c #9A9A9B",
"8. c #868FA0",
"9. c #8790A0",
"0. c #8C95A4",
"q. c #9097A3",
"w. c #9198A4",
"e. c #A1A1A1",
/* pixels */
"3.=.>.=.=.3.=.=.=.-.-.-.3.3.-.3.=.3.3.3.3.3.1.1.=.-.3.3.4.3.7.3.",
"=.2.w.q.0.q...- > ' $.@.@.@.O.@.@.@.@.@.O.O.@.Q   ' 2.:.%.O.~ 7.",
"3.0.0.0.:.{ X.C L %.@.o.@.) T / ..O.@...! ! ! ! 9 _ %.#._ H ~ 7.",
"3.2.<.$.` { { v Q @.) Q Q L A T Q Q T T Y Q Q K > ' [ Y ! I ~ 7.",
"4.<.[ ( ` [ ( t ~ ' Q Q Q Q P U P Q K A T ! Q A < ] ] R R D W 7.",
"3.<.` W _ W U p Q { Y Q ! Y L L L L Q T Q K B x 6 ! ] I Y D W 7.",
"3.<._ K K U U p L ' Q Q L b z z z b K Y M h b x 7 m ! Y ! D E 7.",
"5.<.W T U U U x 9 C K K M b v v b v x h x x z M 7 d I I I u E 7.",
"4.) p i u t p 4   1 t 4 7 8 8 8 7 7 i M M v n z 7 O = 1 < 2 S 7.",
"-.  ) _ _ _ _ _ { c o C Y L L T Y J ; 7 > 4 4 =   L ] ` ' - l 7.",
"3.{ ,.,.8.&.8.+.{ ! 7 Q { ] ! T Q Y r s _ _ _ _ ) +.*.X.{ m Z 7.",
"6.;._ R ] &.| Y I I 9 Q ] Y c b m m 9 M ,.$.] +.8.} ! R Q H S 7.",
"3.$.R Y ! _ R U I z 5 Q T x M m C m 1 C +.R I R ] ! Y R ! u A 7.",
"6.@.M D ! G a n z b 7 ! J m m d m u 1 C +.H I F Y R G n m y A 7.",
"6.$.b z n n b b z b 7 c G D u y u u 7 d ! R R F n D a a b y A 7.",
"6...a p a a y u u 3 # % 1 7 3 5 5 3 % @ 5 n a a u y p p a 5 Z 7.",
"-.j v s - 6 c c j x j h j c v c c c j c s - 6 h j d h t h r A 7.",
"7.;.:...+ _ 0.0.2.,.<.9.0.,.<.<.,.,.<.9.' o / +.X.X.} O.o.X.~ 7.",
"7.@._ M C w.<.,.#.` [ &.:.{ _ _ ( ` { ( p J +.! I Y J  .' Y ~ 7.",
"7.@.! u V 9.$.( ) { ` W W ` T U T { _ U x A _ M G C M M T K ~ 7.",
"6.%.A 8 h _ _ ) K ) / U U v v x h p h x 8 r J G b a z M z q P 7.",
"3.) 8 . ; h p p z p p p h > @ C L L J L h & e r 7 5 5 6 7 < P 7.",
"=.  Q ! ! Q ! ! Q ! / ) ! 8 Q &.;.&.*.,.#.V # * d J G C J $ l 7.",
"=._ ,.:.,.&.&.*.<.#.| X.| t O.&.&.#.&.+.} ` 9 r ! { ! ` ) r Z 7.",
"=.:.#.] ] } *.X.] R F J Y e X.&.{ &.+./ R Y t A { ! m I G f Z 7.",
"=.:.#.Y J R ` ! Y F T D M 9 X.&.R _ / D R Y 4 G ! G m c M w A 7.",
"=.$._ R F J K R R R I z a 7 X.{ U F Y R I n 7 A Y x m v C 3 Z e.",
"1.$.K Y Y n n I I n b a a 9 X.! I D Y D n z 9 G ! u u m z 2 Z 7.",
"1.&.! Y n a b b x a z b z 6 R ! n b n a z n e f M e e u r 2 A 7.",
"=.0 a u y y y y y y y y , X : u y y y y y 5 X = 2 2 2 < 3   k 7.",
"7.k N N N N N N N Z N Z l k v N N N N N Z k l l Z V l l Z g ^ e.",
"7.e.7.7.7.7.7.7.7.6.7.7.5.7.7.7.7.7.7.7.7.5.7.5.7.5.7.5.7.5.7.=."
};
