/* XPM */
static char *_5051517e31245edbd9bb5405d954dd4ViZuOM9a430OtGlg[] = {
/* columns rows colors chars-per-pixel */
"64 64 208 2 ",
"   c #030404",
".  c #0D0A01",
"X  c #050709",
"o  c #07080B",
"O  c #0A0B0D",
"+  c #0B0400",
"@  c #120D00",
"#  c #171501",
"$  c #0B0D12",
"%  c #000019",
"&  c #0C0E19",
"*  c #0E1115",
"=  c #071012",
"-  c #111315",
";  c #12141B",
":  c #161B1D",
">  c #1F201C",
",  c #392901",
"<  c #353311",
"1  c #302914",
"2  c #1A1E25",
"3  c #171A24",
"4  c #1D222B",
"5  c #1E252A",
"6  c #1F2430",
"7  c #232424",
"8  c #23252B",
"9  c #29282B",
"0  c #222632",
"q  c #242A34",
"w  c #2B2E32",
"e  c #292F3D",
"r  c #272C39",
"t  c #29343A",
"y  c #283438",
"u  c #363838",
"i  c #2A1400",
"p  c #5B3A0E",
"a  c #3F403B",
"s  c #58530F",
"d  c #694900",
"f  c #7B5800",
"g  c #775A12",
"h  c #6C6804",
"j  c #6E6E1B",
"k  c #7A780D",
"l  c #525230",
"z  c #2D3443",
"x  c #2E3E45",
"c  c #343A48",
"v  c #3C4347",
"b  c #394154",
"n  c #374C53",
"m  c #355159",
"M  c #444543",
"N  c #494B44",
"B  c #46494A",
"V  c #4E514C",
"C  c #57584D",
"Z  c #4D5157",
"A  c #565956",
"S  c #4A4D53",
"D  c #5F6157",
"F  c #666A5E",
"G  c #64665C",
"H  c #726B57",
"J  c #424B62",
"K  c #455D65",
"L  c #4A546E",
"P  c #465567",
"I  c #585B62",
"U  c #4E5873",
"Y  c #515C77",
"T  c #525D79",
"R  c #4A636C",
"E  c #47616B",
"W  c #4F6973",
"Q  c #4E6771",
"!  c #55667C",
"~  c #54727C",
"^  c #5E6269",
"/  c #686B65",
"(  c #76786C",
")  c #676C74",
"_  c #7B7E73",
"`  c #757A7F",
"'  c #6C7066",
"]  c #896700",
"[  c #936C01",
"{  c #997504",
"}  c #A37A06",
"|  c #827B6E",
" . c #7E8175",
".. c #8B8301",
"X. c #9C9101",
"o. c #B38601",
"O. c #A88212",
"+. c #A59801",
"@. c #B5AA02",
"#. c #C99A03",
"$. c #CAA801",
"%. c #D5A704",
"&. c #D3B201",
"*. c #C5BA01",
"=. c #E9BA01",
"-. c #D9CA02",
";. c #E5C403",
":. c #EDCB02",
">. c #F4CD02",
",. c #EAD802",
"<. c #F3D402",
"1. c #F4DB02",
"2. c #FADB02",
"3. c #F5E102",
"4. c #818377",
"5. c #83857A",
"6. c #868A7D",
"7. c #958D70",
"8. c #3A7181",
"9. c #5A6684",
"0. c #5B6887",
"q. c #5E7E89",
"w. c #616E8E",
"e. c #757B85",
"r. c #626F90",
"t. c #687598",
"y. c #67728F",
"u. c #6E7DA1",
"i. c #727FA1",
"p. c #528592",
"a. c #668B99",
"s. c #6C919F",
"d. c #7585AC",
"f. c #7399A7",
"g. c #7C8CB4",
"h. c #7D8DB7",
"j. c #7F90B9",
"k. c #6C96A2",
"l. c #7DAAB9",
"z. c #8E9183",
"x. c #929586",
"c. c #929688",
"v. c #95998B",
"b. c #999D8E",
"n. c #888D99",
"m. c #918F9B",
"M. c #9D9F90",
"N. c #92919B",
"B. c #8D9190",
"V. c #A09F91",
"C. c #9DA08F",
"Z. c #9EA393",
"A. c #A1A595",
"S. c #A4A897",
"D. c #A4A798",
"F. c #A6AA9A",
"G. c #A9AD9D",
"H. c #ACB19F",
"J. c #B0B39F",
"K. c #949AA5",
"L. c #8293BE",
"P. c #8D9AB8",
"I. c #8B94A6",
"U. c #81AEBE",
"Y. c #94A5B5",
"T. c #ACAFA1",
"R. c #A1A1AB",
"E. c #B1AFA3",
"W. c #ADB2A2",
"Q. c #B1B3A4",
"!. c #B2B8A5",
"~. c #A4ABB7",
"^. c #A8B1BD",
"/. c #8596C1",
"(. c #8798C3",
"). c #8A9AC4",
"_. c #9CAACD",
"`. c #96A4C8",
"'. c #87B7C7",
"]. c #ACB5C2",
"[. c #B3BBC8",
"{. c #A4B3D4",
"}. c #ACBAD8",
"|. c #A0ABC4",
" X c #8EC4D7",
".X c #94CADC",
"XX c #93C7D8",
"oX c #B7C3DA",
"OX c #B1C4CF",
"+X c #BECAE1",
"@X c #A8D3E2",
"#X c #B6D9E6",
"$X c #C3CDDB",
"%X c #C6D1DA",
"&X c #C7D2E5",
"*X c #CED9E9",
"=X c #CBD5E6",
"-X c #D2DCED",
";X c #D5DFF0",
":X c #C2CEE4",
">X c #C6E2EC",
",X c #D6E0EF",
"<X c #D7E1F1",
"1X c #D9E4F3",
"2X c #D8EBF3",
"3X c #FDFEFE",
"4X c #F5F9FB",
"5X c #E7F2F8",
/* pixels */
"W.W.!.Q.W.T.Z.Z.Z.Z.M.Z.T.T.T.T.T.E.Q.E.Q.Q.T.T.G.D.T.T.Q.W.W.W.W.W.H.G.A.Z.C.C.Z.Z.Z.F.W.W.W.~.!.W.W.!.W.T.Z.Z.W.W.W.T.E.Q.T.W.",
"Q.W.W.W.T.Z.b.Z.Z.Z.Z.Z.b.D.D.T.E.T.W.Q.Q.Q.E.T.T.T.T.E.Q.Q.W.W.W.G.S.A.C.C.Z.Z.Z.Z.Z.Z.F.W.W.W.W.W.W.W.W.G.~.W.W.W.W.W.Q.W.W.W.",
"Q.Q.W.T.Z.Z.Z.Z.Z.Z.Z.Z.A.V.M.T.T.E.E.E.E.W.T.T.G.G.T.Q.Q.Q.H.T.G.G.S.A.C.C.Z.Z.Z.Z.Z.Z.F.F.W.W.W.W.W.W.W.W.H.T.T.W.W.W.W.W.W.W.",
"Q.W.T.Z.Z.Z.Z.Z.Z.Z.Z.Z.V.Z.M.M.G.T.T.E.Q.T.G.D.A.M.G.E.Q.Q.H.H.G.S.Z.C.C.C.C.Z.Z.Z.Z.Z.F.F.G.W.W.W.W.W.T.F.Z.F.T.T.W.W.Q.W.T.F.",
"W.T.Z.Z.Z.Z.Z.Z.Z.Z.Z.Z.Z.Z.Z.Z.A.D.T.T.G.S.A.C.M.M.D.G.D.V.A.Z.b.v.x.V.Z.C.C.C.Z.Z.Z.Z.Z.Z.F.T.W.W.W.F.Z.Z.F.F.S.F.W.W.W.T.Z.Z.",
"T.Z.Z.Z.Z.Z.Z.Z.Z.Z.Z.Z.Z.Z.Z.Z.A.D.G.T.G.S.V.v.x.z.v.C . @ @ @ @ @ @ C x.x.x.x.C.Z.Z.Z.Z.Z.Z.H.Z.G.H.F.Z.F.Z.Z.Z.Z.G.W.G.A.A.Z.",
"Z.Z.Z.Z.Z.Z.Z.Z.Z.Z.Z.Z.Z.Z.Z.Z.A.A.G.G.F.S.b.G . @ , f } o.#.%.%.#.} [ p i # . D z.Z.Z.F.Z.Z.Z.Z.G.K.Z.Z.Z.Z.Z.Z.Z.S.F.S.Z.Z.Z.",
"T.Z.Z.Z.Z.Z.Z.Z.Z.Z.M.T.Z.Z.M.Z.V.A.G.E.A.x.G , ] $.=.>.>.<.>.;.;.&.;.:.>.=.%.[ , . / Z.Z.F.Z.Z.T.W.!.S.F.F.Z.Z.Z.Z.G.W.S.Z.A.Z.",
"H.S.Z.Z.Z.Z.C.S.Z.Z.Z.Z.Z.Z.Z.Z.A.D.G.T.( . s &.1.3.3.-.@...h l l l s h X.*.:.<.&.d H b.F.Z.Z.Z.W.!.!.F.S.S.A.Z.Z.F.J.!.W.Z.Z.S.",
"H.H.F.C.S.Z.Z.C.Z.Z.Z.D.Z.Z.Z.Z.D.G.W.Q.| d ;.2.,.1.,...# # 9 I a.( u # # h -.1.2.&.p ' Z.Z.T.W.W.W.W.W.G.S.Z.Z.G.W.W.!.W.H.F.Z.",
"W.W.H.F.Z.Z.Z.Z.Z.Z.Z.Z.Z.Z.D.T.T.W.Q.Q.7.] ;.>.<.1.1.-.@.X.k j j k { X.*.-.1.1.-.X.< ' Z.Z.H.W.W.!.!.W.H.F.S.F.W.!.W.W.W.W.W.H.",
"!.W.H.H.F.Z.Z.Z.Z.D.Z.Z.Z.Z.Z.T.~.Q.Q.!.5.1 f o.#.=.;.:.<.1.>.>.:.:.1.,.:.;.&.+.h < ( C.Z.G.W.W.Q.Q.!.W.H.G.F.H.!.!.H.W.W.W.W.H.",
"W.W.H.W.H.F.A.Z.M.Z.A.Z.Z.D.T.T.E.Q.Q.Q.!.4.> 9 l g f ] [ } } O.O.O.{ [ ] g p 7 > ' C.F.H.H.W.W.T.W.W.W.H.F.S.G.H.W.W.W.!.H.H.W.",
"W.W.W.W.W.F.S.S.D.D.M.Z.T.T.T.W.Q.Q.E.Q.E.G.F.Z.V.H > 7 7 3 % % % % 3 9 7 / Z.Z.A.C.A.H.H.H.W.H.T.W.W.W.S.S.Z.A.G.H.H.H.W.H.Q.W.",
"W.W.W.W.W.W.G.D.Z.Z.Z.T.T.W.W.E.Q.Q.T.W.T.G.Z.Z.Z.Z.D.M.6.N + $ $   N 6.5.4.x.Z.A.A.H.!.W.W.W.W.W.W.W.F.Z.C.C.Z.A.F.T.W.W.E.H.W.",
"!.W.W.W.T.W.W.F.D.D.Z.T.T.W.E.E.Q.Q.E.T.D.A.Z.Z.M.c._ V : w B I I B w 9 2 * N 5.C.H.H.W.!.H.W.W.W.W.W.Z.Z.A.S.C.Z.A.G.H.W.Q.W.Q.",
"W.W.H.T.T.T.W.H.D.A.G.E.E.E.E.!.E.Q.G.D.S.Z.M.Z.x.A 2 M n.oX*X-X*X=X$X[.I.A 9 2 D Z.W.W.W.W.W.W.T.T.Z.Z.Z.Z.F.Z.Z.Z.F.F.W.W.W.W.",
"F.W.T.W.W.H.H.W.G.A.D.E.E.E.E.E.Q.T.D.A.V.A.Z.M./ 2 Z [.1X1X1X1X1X1X1X1X1X=X^.I * A Z.!.W.W.W.W.T.Z.Z.Z.Z.Z.Z.Z.Z.Z.Z.Z.T.T.W.W.",
"Z.G.W.W.W.W.W.F.D.A.A.T.T.E.E.E.T.F.A.V.C.Z.M.z.M c ].1X1X-X1X-X-X<X-X;X1X2X1X$X) * Z Z.W.W.W.T.T.Z.Z.Z.T.Z.Z.Z.Z.Z.Z.Z.R.T.W.W.",
"Z.F.G.W.W.W.W.Z.V.A.V.F.G.E.E.Q.G.A.A.V.Z.b.Z.G & ) *X1X-X1X;X1X1X1X;X1X-X-X;X1X=X) * ( !.W.W.F.Z.F.Z.Z.Z.Z.F.Z.T.Z.T.Z.C.F.T.T.",
"Z.Z.Z.T.G.W.Z.Z.A.A.V.V.S.E.G.F.S.A.b.Z.Z.A.6.l r P.*X<X,X,X,X,X$X[.~.K.N.N.m.m.R.I.w C Z.G.Z.Z.Z.Z.Z.Z.F.Z.Z.F.Z.D.Z.Z.Z.Z.F.G.",
"D.Z.Z.Z.Z.G.F.Z.S.V.V.V.A.S.S.A.b.V.A.V.b.b./ $ b _.-X1X,X,X%XN.) Z M u 9 9 5 8 y v : = V x.Z.Z.Z.Z.G.Z.Z.Z.Z.F.Z.D.F.Z.Z.T.Z.Z.",
"Z.Z.Z.Z.F.S.Z.Z.A.A.A.V.A.D.F.S.A.V.M.Z.C.b.F ; 9.{.-X<X1X$Xa.9 6 K q.a.k.f.k.k.p.8.m y = N c.Z.Z.G.Z.Z.F.F.Z.Z.D.Z.S.Z.b.Z.Z.Z.",
"A.A.S.T.W.G.F.Z.V.A.A.A.A.G.H.H.S.V.A.A.A.A./ 4 t.{.-X<X-XN.y v s. X.X.X#X2X5X5X2X>X#XU.E = N x.Z.Z.Z.G.Z.Z.F.Z.Z.D.Z.Z.Z.Z.W.W.",
"D.F.T.E.W.T.F.S.A.A.V.S.F.Q.Q.Q.H.S.A.A.A.Z./ 0 u.{.-X1X%X) 5 m a.'..X.X>X4X3X3X3X3X3X5XXXK = V v.A.A.A.A.A.A.A.D.Z.D.Z.Z.Z.W.!.",
"F.T.Q.Q.Q.T.T.G.S.A.A.F.Q.Q.Q.Q.J.H.S.A.Z.z.M q d.{.-X1X$XI q E 9.U..X.X@X2X5X5X4X4X4X4X=X'.v ;  .Z.S.A.A.S.A.A.D.Z.Z.Z.T.T.W.W.",
"T.Q.E.T.E.W.W.H.G.S.F.E.Q.Q.Q.Q.Q.b.G D A M o r g.{.-X1X$XI q E R a. X.X.X.X@X#X#X>X>X>X@X XE = 4.A.A.A.A.A.S.A.Z.Z.Z.D.T.T.T.W.",
"T.Q.T.T.W.W.W.W.G.D.F.E.Q.Q.Q.W.V.V 2 B Z B 8 r g.{.-X1X%X^ 5 K R ~ f. X.X.X X.X.XXXXX X'.f.m o 5.G.S.S.A.C.A.S.Z.Z.S.F.T.W.T.W.",
"T.T.H.G.W.W.H.G.D.A.F.G.Q.W.Q.M.N 9 d.OX%X[.I z g.{.-X<X*Xe.6 m R E W a.l.l.U.'.U.l.f.k.q.E 9 X 5.Q.T.F.Z.Z.C.C.Z.S.F.S.W.W.T.T.",
"W.Q.H.W.H.W.G.F.A.A.A.D.H.W.Q.6.- e.;X1X,X$XI z j._.*X<X;X~.u t Q R R R W ~ ~ ~ ~ W W R E K 2 u M.Q.Q.G.Z.Z.A.A.F.F.W.W.W.W.T.T.",
"Q.W.T.W.H.H.S.Z.M.M.Z.A.S.G.W.5.9 ~.2X;X;XoXZ c L._.*X1X1X$XI : n Q R R E E E E E E Q Q K t O 5.Q.E.Q.Q.H.S.Z.S.H.W.W.W.W.W.W.T.",
"T.T.T.T.G.F.Z.Z.Z.Z.Z.Z.Z.S.G.5.9 ].*X+XoXR.B c L.`.*X1X;X-XK.w : n R W W W W R R E m t 8 = a v.T.E.E.Q.H.F.S.F.H.!.W.W.W.W.W.G.",
"T.W.T.T.D.D.Z.Z.Z.Z.Z.Z.Z.A.S.4.8 L._.(./.u.c J /.`.&X1X-X1X=XK.l 6 q y y t t y w q 3 u c - 4.T.T.T.Q.Q.E.D.G.G.J.Q.J.J.J.!.J.J.",
"W.W.D.D.A.Z.Z.Z.C.Z.A.Z.A.A.A. .2 d./.j./.t.z L L.).:X1X;X;X1X-X~.e.Z u w 9 r u S A ) Y.I.9 M b.Q.E.E.E.G.G.V.F.J.J.Q.J.J.!.J.G.",
"W.T.F.Z.Z.Z.Z.Z.Z.Z.A.Z.Z.A.z.u 0 h.(././.r.z U /.(.+X;X1X;X;X1X;X=XoX^.K.K.Y.~.OX%X-X;X_.r O 4.E.E.E.T.F.D.A.V.F.G.J.Q.Q.J.G.S.",
"W.Z.Z.Z.Z.Z.Z.Z.Z.Z.Z.A.Z.A._   e j./././.r.z 9././.}.-X1X1X1X;X;X1X1X;X1X,X,X1X1X1X1X;X~.0 .  .G.G.T.T.F.V.A.A.A.S.G.J.Q.G.S.A.",
"T.Z.Z.Z.Z.Z.Z.A.Z.Z.Z.A.Z.A. .o c /././.L.9.0 0.(./._.;X1X;X1X1X<X,X,X<X1X,X1X<X;X;X;X=X).0 + ( A.G.G.A.A.A.D.A.A.S.S.G.G.S.V.V.",
"T.Z.Z.Z.M.Z.Z.A.Z.Z.A.A.A.A. .O J (./././.9.3 0.(./.`.:X;X1X;X;X1X1X<X<X<X,X1X,X;X;X1X:XP.0 + _ A.D.G.D.A.A.D.D.V.S.S.F.S.A.C.C.",
"W.F.Z.Z.Z.Z.Z.Z.A.Z.A.A.A.A. .* L /./././.T 3 0.(.L.).+X;X;X;X;X<X1X<X<X<X<X<X1X1X;X1X}.L.9   _ G.G.T.G.A.A.A.A.A.S.G.G.G.A.C.C.",
"T.T.Z.Z.Z.Z.Z.Z.Z.Z.Z.Z.A.Z._ - U /./././.9.3 r.(././._.-X1X1X1X<X1X1X<X<X<X<X<X1X1X-X{.d.8   _ G.E.T.T.G.A.A.A.F.G.J.H.J.H.F.S.",
"W.T.G.Z.Z.Z.Z.Z.Z.Z.Z.Z.Z.Z. .- T /./.L./.T 2 w././.L.(.+X1X1X;X<X<X<X<X1X;X;X1X;X1X:X`.d.0 B M.W.E.Q.E.E.F.S.S.G.J.E.Q.J.W.F.F.",
"W.W.W.F.Z.Z.Z.Z.Z.Z.S.Z.Z.S. .- T /./././.U 2 w././././._.&X1X;X1X<X1X<X;X;X1X;X1X-X_.(.d.2 | Q.Q.Q.Q.Q.E.G.F.F.J.E.J.J.G.W.W.H.",
"W.~.W.W.W.Z.Z.Z.Z.C.C.A.Z.F.4.* U /./././.T 2 r.(././././._.+X-X-X1X<X1X;X1X1X-X&X{./.(.i.0 e.!.Q.Q.T.Q.Q.T.G.F.G.Q.J.Q.W.H.W.W.",
"W.W.W.W.W.T.Z.Z.A.C.C.C.S.F.6.= L /./.L./.T 2 r././././././.(._.{.{.}.oX+X$X}.}.`././.(.t.2 5.Q.Q.E.Q.Q.E.G.S.S.G.J.!.J.W.W.W.W.",
"W.W.W.H.W.G.Z.Z.Z.b.A.A.G.T.z.o c L././.L.Y 2 0./././././.L.L././.L./.(.(.(.(.L./././.(.r.3 | Q.E.W.Q.T.F.F.Z.C.F.W.W.!.H.W.W.W.",
"W.T.H.H.W.T.W.T.S.A.S.G.T.T.V.D 6 d.(././.9.6 0././././././././.(././.L./.L././././././.9.; 5.T.E.W.T.F.S.S.Z.C.Z.F.G.!.H.W.H.W.",
"W.W.W.W.H.W.W.T.F.S.G.Q.T.Q.W.6.3 9.j.j.j.9.q 9././././././././.(./.(./.(././.(././././.Y ; _ W.T.T.D.A.C.Z.A.Z.Z.Z.Z.W.H.W.H.W.",
"W.W.W.W.W.W.W.T.G.G.G.E.Q.T.T.5.& & z c c e 3 9./././././././.g.0.L Y Y ! i.L.L./././.h.J $ _ T.D.F.Z.Z.Z.Z.Z.Z.Z.Z.Z.Z.W.W.W.W.",
"G.W.!.W.T.T.E.T.G.V.D.T.E.Q.Q.T.a.G     O   ; T /././././.j.(.t.z $ - - - L L.L./././.j.v .  .H.D.Z.Z.Z.Z.Z.Z.Z.Z.Z.Z.Z.T.W.W.W.",
"Z.F.W.W.T.T.T.D.A.V.Z.D.T.W.T.T.F.b. . . .C * L L./.j././.L.(.t.0 M z.u X J L././././.d.5 D Z.H.D.Z.Z.Z.Z.Z.Z.Z.Z.Z.Z.Z.Z.G.W.W.",
"Z.S.F.G.T.T.D.D.A.V.Z.M.D.T.T.T.F.S.Z.Z.Z.' O b j././././././.y.8 A W.V X U L.L./././.u.4  .S.S.Z.Z.Z.Z.Z.Z.Z.Z.Z.Z.Z.Z.Z.Z.F.G.",
"Z.Z.S.S.D.D.A.A.A.D.D.Z.A.D.D.D.S.Z.S.F.Z.' X t h././././././.9.2 A D.N   J L././././.q.3 ' S.Z.Z.Z.Z.Z.Z.Z.Z.Z.Z.Z.Z.Z.Z.Z.Z.Z.",
"Z.Z.A.D.F.A.A.A.A.S.V.V.A.A.A.V.Z.Z.Z.S.F.v.A y d.(././././.L.J X C Z.c.a m L././././.U =  .Z.Z.Z.Z.Z.Z.Z.Z.Z.Z.Z.Z.Z.Z.Z.Z.Z.Z.",
"A.V.D.G.T.D.A.A.A.V.V.A.M.G.G.A.Z.Z.Z.Z.Z.Z.F 5 t.(./././.(.d.z N Z.T.S.M q w.g.h.L.d.6 =  .S.Z.Z.Z.Z.Z.Z.Z.Z.Z.F.Z.Z.Z.Z.Z.Z.F.",
"A.S.T.T.T.T.G.A.A.A.A.A.D.G.G.G.S.Z.F.Z.Z.Z./ = L L.(.(./.h.J o A W.W.T.Z O & 3 e q ; X F S.S.Z.Z.Z.Z.Z.Z.Z.Z.Z.Z.Z.Z.Z.Z.Z.F.W.",
"A.G.W.Q.E.T.G.A.A.V.b.S.J.J.J.J.W.Z.Z.Z.Z.Z.v.A 4 L T T L t o N Z.W.!.W.Z.c.v X   X D v.H.H.H.H.Z.Z.Z.Z.Z.T.Z.Z.Z.Z.Z.Z.Z.G.T.W.",
"G.T.T.!.W.W.W.G.S.V.G.J.J.J.H.J.W.F.F.Z.Z.Z.Z./ O o O = o = Z Z.W.Q.W.Q.Q.W.Z.B.k.C.S.H.!.J.H.H.S.Z.Z.Z.Z.Z.Z.Z.Z.Z.Z.Z.F.H.H.H.",
"E.W.T.Q.W.W.H.H.F.S.S.J.J.H.H.J.W.W.F.S.F.Z.Z.b.c.c.z.c.c.v.Z.H.W.W.W.W.W.Q.W.F.F.H.H.H.H.J.H.H.H.F.Z.Z.Z.Z.Z.Z.Z.Z.Z.F.~.W.W.H.",
"Q.T.W.W.!.W.H.H.F.S.G.J.H.!.J.H.W.W.W.G.F.Z.Z.Z.Z.Z.Z.S.S.G.F.W.W.W.W.W.W.W.T.Z.H.H.H.W.H.H.H.H.H.H.Y.Z.Z.Z.Z.Z.F.Z.T.G.W.W.W.W.",
"W.W.W.W.W.!.H.S.A.V.S.H.H.J.Q.H.W.W.W.W.W.F.Z.Z.A.Z.S.H.F.G.H.H.W.W.W.W.W.W.Z.Z.Z.H.W.!.H.H.!.H.H.H.W.F.F.Z.Z.Z.Z.T.W.T.W.H.H.!.",
"T.W.Q.W.!.H.G.S.Z.C.C.F.H.H.J.!.!.~.W.W.T.T.F.Z.A.S.G.W.H.H.H.H.W.W.H.H.W.G.Z.Z.F.Z.F.W.H.W.W.W.H.H.!.H.F.Z.Z.Z.F.H.H.W.W.W.W.W.",
"Q.Q.W.W.H.F.S.Z.Z.Z.C.C.S.H.Q.H.W.W.W.W.W.W.W.Z.Z.S.F.W.W.H.H.H.H.H.H.G.Z.Z.Z.Z.Z.Z.Z.F.H.W.W.W.H.H.H.!.H.F.F.F.H.H.!.W.W.W.W.W.",
"Q.Q.W.T.F.S.Z.Z.Z.Z.Z.Z.C.S.H.H.W.!.!.W.W.W.T.T.T.W.W.W.W.H.W.H.W.H.H.S.Z.Z.Z.Z.Z.Z.Z.Z.F.W.H.H.H.!.!.H.H.H.S.H.W.W.W.W.W.W.W.W.",
"Q.!.Q.T.Z.Z.Z.Z.Z.Z.Z.A.A.S.F.H.W.W.W.W.W.W.W.T.T.F.W.W.W.H.W.W.W.H.G.S.Z.Z.Z.Z.Z.Z.Z.Z.F.F.W.H.H.!.H.H.W.H.S.H.!.!.H.!.W.W.H.W."
};
