/* XPM */
static char *result[] = {
/* columns rows colors chars-per-pixel */
"64 64 217 2 ",
"   c #0C0E0F",
".  c #181703",
"X  c #0E1114",
"o  c #15191B",
"O  c #1A1B1C",
"+  c #131619",
"@  c #3B2A02",
"#  c #2B2616",
"$  c #37341D",
"%  c #1A1D26",
"&  c #171B23",
"*  c #1E2124",
"=  c #1E232C",
"-  c #1B262A",
";  c #222424",
":  c #23262A",
">  c #26292C",
",  c #2A2B2D",
"<  c #292828",
"1  c #363429",
"2  c #242A34",
"3  c #2C2E31",
"4  c #272B3A",
"5  c #2A2E3D",
"6  c #232633",
"7  c #2E3133",
"8  c #293439",
"9  c #263439",
"0  c #333433",
"q  c #363835",
"w  c #3B3D3C",
"e  c #363938",
"r  c #362B22",
"t  c #2E1804",
"y  c #55380E",
"u  c #423C28",
"i  c #3F413E",
"p  c #55500F",
"a  c #694801",
"s  c #76560B",
"d  c #6C6905",
"f  c #79750C",
"g  c #6D6F1C",
"h  c #454337",
"j  c #54572D",
"k  c #2D3342",
"l  c #2E3B40",
"z  c #363B47",
"x  c #383F53",
"c  c #3F4244",
"v  c #3C454D",
"b  c #374854",
"n  c #2F4046",
"m  c #3E5C64",
"M  c #434642",
"N  c #4B4D4A",
"B  c #464848",
"V  c #4E504C",
"C  c #53544B",
"Z  c #464C59",
"A  c #4C5157",
"S  c #555858",
"D  c #504E40",
"F  c #5D615B",
"G  c #676454",
"H  c #444C63",
"J  c #455D65",
"K  c #49536C",
"L  c #475A68",
"P  c #575B63",
"I  c #4F5974",
"U  c #4C5770",
"Y  c #525D79",
"T  c #505B76",
"R  c #4A636C",
"E  c #476069",
"W  c #5E6269",
"Q  c #4E6972",
"!  c #4E6771",
"~  c #56617E",
"^  c #516E77",
"/  c #54727C",
"(  c #6D6F69",
")  c #666964",
"_  c #6F7169",
"`  c #75776C",
"'  c #666A71",
"]  c #777A75",
"[  c #6E7279",
"{  c #645B53",
"}  c #886708",
"|  c #946D03",
" . c #9E790B",
".. c #A17500",
"X. c #7E8178",
"o. c #7F806F",
"O. c #8A8402",
"+. c #968A04",
"@. c #989201",
"#. c #A9830E",
"$. c #B48702",
"%. c #A99A02",
"&. c #AE8917",
"*. c #B3AA03",
"=. c #C99A03",
"-. c #CDAA02",
";. c #D3A504",
":. c #CAB503",
">. c #E9BA04",
",. c #D9C804",
"<. c #DED007",
"1. c #EDCC04",
"2. c #E5C404",
"3. c #F4CE03",
"4. c #ECDC02",
"5. c #E1D202",
"6. c #F3D304",
"7. c #F6D803",
"8. c #F4E104",
"9. c #83857C",
"0. c #86887B",
"q. c #3E7180",
"w. c #5A6583",
"e. c #5C6887",
"r. c #597E8A",
"t. c #616E8E",
"y. c #787C83",
"u. c #657294",
"i. c #6B789B",
"p. c #636F90",
"a. c #6E7DA1",
"s. c #707FA3",
"d. c #668B98",
"f. c #6B909C",
"g. c #7585AB",
"h. c #7988AE",
"j. c #6B98A6",
"k. c #749DAB",
"l. c #7D8DB4",
"z. c #7F8FB8",
"x. c #7F90B9",
"c. c #7CA8B7",
"v. c #4F8B9A",
"b. c #8A8D83",
"n. c #8E9188",
"m. c #92958A",
"M. c #96998C",
"N. c #999B8E",
"B. c #888D97",
"V. c #9A9D92",
"C. c #949696",
"Z. c #908F99",
"A. c #9EA195",
"S. c #9FA298",
"D. c #A3A69A",
"F. c #A6A99D",
"G. c #AAAC9E",
"H. c #A1A294",
"J. c #ADB09D",
"K. c #8D95A4",
"L. c #959AA5",
"P. c #8394BE",
"I. c #8C9AB8",
"U. c #9BA2AE",
"Y. c #81ADBD",
"T. c #85B1BF",
"R. c #9AA3B5",
"E. c #ACAFA1",
"W. c #A0A0AA",
"Q. c #AEB2A4",
"!. c #B1B4A6",
"~. c #B4B6A9",
"^. c #B6B9AB",
"/. c #B9BDAE",
"(. c #A5ADB9",
"). c #BBBEB1",
"_. c #ADB1B1",
"`. c #BCC0AF",
"'. c #BCC1B2",
"]. c #8496C1",
"[. c #8798C3",
"{. c #8A9BC4",
"}. c #9BAACD",
"|. c #94A3C8",
" X c #88B9CA",
".X c #ADB5C3",
"XX c #B3BCC9",
"oX c #A4B2D3",
"OX c #A8B6D6",
"+X c #AFBCD8",
"@X c #A0AECD",
"#X c #8EC3D5",
"$X c #94CADC",
"%X c #94C7D9",
"&X c #B9C2CF",
"*X c #B8C4DE",
"=X c #B6C1DA",
"-X c #AACEDB",
";X c #BEC9E1",
":X c #A8D3E2",
">X c #B6DAE7",
",X c #C3CCDB",
"<X c #C1CDE4",
"1X c #CAD4E4",
"2X c #CAD5E9",
"3X c #CED9EB",
"4X c #C9D7E7",
"5X c #D3DDEE",
"6X c #D5DFF0",
"7X c #C8E3EC",
"8X c #D5E4EF",
"9X c #D7E1F1",
"0X c #D9E3F3",
"qX c #DBEDF4",
"wX c #E6F2F7",
"eX c #FDFEFE",
"rX c #F5F9FB",
/* pixels */
").'.).'.`.^.Q.E.Q.Q.G.!.!./././.).).).).).).)./.~.~.~.).).'.)./.'././.~.~.Q.Q.Q.Q.Q.Q.^.'./.).'.'.'.).'.'.^._.~.^.).).).).).).).",
"'.'.).)._.Q.E.Q.Q.Q.Q.Q.Q.!.~./.).).).).).).).).).).).).).'.'.)././.~.!.J.J.Q.Q.Q.Q.Q.Q.^./.'.'.).).'.'.'.^.`.^.).'.).).).).).).",
"'.).)./.Q.Q.Q.Q.E.Q.Q.Q.!.E.!.~.).).).).).).).).~.~.).).).).^.^.^.~.~.!.Q.J.J.Q.Q.Q.Q.Q._.^.'./.'.'.).).'.^.^.`./.).).).).).).).",
"'.).^.~.Q.Q.Q.Q.Q.Q.Q.Q.E.Q.E.Q.~./.).).).).).~.~.!.!.~./.'.'././.!.J.G.F.F.G.Q.Q.Q.Q.Q.~.^.^.'.'.'.'._.`.^.Q.^.^.).).).).).^.^.",
").^.Q.Q.Q.Q.Q.Q.Q.!.Q.Q.!.Q.Q.E.Q.~.).)./.~.Q.Q.G.E.E.~._.~.Q.Q.J.D.F.F.F.J.J.E.E.Q.Q.Q.Q.Q.^./.).'.'.^.Q.Q.Q.^.^.^.`.'.)./.!.E.",
"^._.Q.Q.Q.Q.Q.Q.Q.E.E.E.Q.Q.Q.Q.Q.!.~.).^.!.G.J.H.N.` { D u r r # 1 h D G 0.N.S.J.J.E.Q.~.Q.Q.~._._.^.^.Q.Q.Q.Q.Q.Q.^.^.).~.!.Q.",
"~.Q.Q.~.Q.Q.Q.Q.Q.E.Q.Q.Q.E.Q.Q.Q.~.^.^.~.E.H.o.u # @ } ..=.=.;.;.=.$.| y t # h o.N.Q.Q.Q._.Q.Q.Q.~.~.Q.Q.Q.Q.Q.Q.G.^.^._.Q.Q.Q.",
"^.Q.Q.Q.Q.Q.Q.Q.!.E.Q.~.Q.Q.Q.Q.!.!.^./.~.b.h @ | ;.>.3.3.3.2.>.,.>.>.1.3.>.-.| @ i X.J.Q.Q.Q.Q.`.'.'.Q.^._.Q.Q.Q.Q.^.^.~.!.Q.Q.",
"`.~.Q.Q.!.E.E.!.Q.Q.Q.Q.Q.Q.Q.Q.~.~.~.~.b.1 a :.7.8.4.<.*.O.d j j j j d +.:.4.3.;.s h m.Q.Q.Q.~.^.'.'.~.~.~.Q.Q.Q.~.`.'.`.~.Q.Q.",
"`./.~.J.!.Q.Q.E.E.Q.!.!.Q.Q.Q.!.~._.).E.{ a 1.8.4.4.4.O.. . : P y.[ 3 . . d ,.4.8.-.p 0.Q.Q.^.'.'.'.'.`.`.!.Q.Q.^.'.`.'.'.^.^.Q.",
"'././.~.!.E.Q.!.!.Q.E.E.Q.Q._.^.).).).E.{ } >.3.6.7.4.,.*.@.f g g f O.%.:.5.4.4.5.+.p b.Q.Q.^.).'.'.'.'.`.!.~.^.`.'.'.'.'.'.`.^.",
"'.`././.!.!.Q.Q.E.~.!.!.Q.Q.~.^.).).).).0.u } ..=.>.>.3.3.3.3.3.2.1.6.6.1.2.-.%.f u _ D.Q.^.).'.'.'.'.`.`.`.~.`.'.'.'.'.'.`.'.^.",
"'.'.^.'./.~.!.Q.E.~.!.Q.Q.~././.).'.'.'.^.m.N 1 y s } |  . .$.&.&.&.#. .} s y r D 0.J.!.^./.).`.'._.'.'.`.~.~.^.).`./.).'.`.`.`.",
"'.'.'.'.).^.~.!.Q.Q.Q.!.^././.).).'.'.'.'.^.!.S.9.( F A N z k 4 4 8 z N S ( X.N.E.Q.!./.`.).`.).).).'.'.~.!.J.!.~./.`.`.'.^.).'.",
"'.'./.'./.)./.~.Q.!.!.~.^.).).).'.).).)./.^.Q.E.Q.Q.Q.A.b.S u w w w C ` b.M.D.Q.Q.!.^.).'.`.)./.'.'./.^.!.Q.Q.J.Q.^./././.)./.).",
"/.'.'././.)./.~.!.!._.^.).).).).).).).^.^.Q.Q.Q.J.F.X.c ; 3 Z P P v 0 < < 0 F n.E.~./.).'.).).'.^.^.^.~.Q.Q.!.Q.Q.~./.).).).).).",
"/.'.'./.'.'.'.^.~.~.~./.).).).).).).~.~.~.!.E.E.D.` 3 c B.XX1X3X3X1X,X.XK.A < 0 _ S.^.'.'.'.'.'.'.^.~.Q.Q.Q.~.Q.Q.Q.~.`.`.'./.'.",
"^././.'././.'./.~.!.~.).).).).).).).!.!.!.E.E.G.] 0 S XX0X0X0X0X0XqX0X0X0X4X(.P o V S.`.'.^.'.'.^._.Q.Q.Q.Q.Q.Q.Q.Q.Q.Q.^.^.).'.",
"_.^.`./.^.`./.^.~.~.!./.).).).).).~.~.!.!.E.E.m.e z .X0X0X6X6X6X5X5X9X9X0X0X0X,X' o V F.).).'.^.~.~.Q.Q.~.Q.Q.Q.Q.Q.Q.Q.~./.).).",
"Q.!.^./.'.`.^._.E.!.!.!.~.).).).).~.!.E.E.E.E.{ + t.5X9X0X0X6X0X9X0X9X9X5X8X8X0X4X' & ] ^._.^.Q.Q.~.Q.Q.Q.~.~.Q._.Q.^.Q.Q._.).^.",
"Q.Q.~.^.^.^.^.Q.E.~.E.!.!././.~.~.~.E.!.E.G.N.h 4 I.5X9X9X9X9X5X,XXX(.L.K.Z.B.Z.U.C.7 c A.~.Q.Q.Q.Q.Q._.Q.!.!.~.Q.~.!.!.Q.~.~.~.",
"Q.E.E.!.~.~.Q.~.!.E.!.E.!.~.~.!.E.E.E.E.E.G.9.r b }.5X5X9X9X,XC.' A B q > - - > 8 v o o F A.E.Q.Q.~.~.Q.Q.Q.Q.~.E.Q.~.Q.~.~.Q.Q.",
"~.Q.Q.!.^.Q.~.Q.!.!.!.E.!.~.^.~.E.E.E.E.E.E._ < w.oX5X9X9X,Xd., 4 m r.d.j.j.j.j.v.^ b 9 o i b.J.Q.Q.~.~.Q.!.Q.Q.!.Q.!.!.E.Q.Q.~.",
"!.Q.~.^.).^.~.Q.E.!.!.!.!./././.~.!.!.E.E.W.{ 6 u.OX5X0X5XK.9 i d.%X$X$X>XqXwXqXqX8X-X Xm X i M.E.Q.Q.Q.!.!.~.Q.!.~.!.Q.Q.Q.^.^.",
"~.~.).).)./.~.~.!.!.Q.!.^.).).)./.!.!.E.E.D.S 6 a.OX6X0X1XW - A d. X$X$X7XrXeXeXeXeXrXwX-XJ o ( G.E.!.Q.Q.!.!.!.Q.~.!.Q.!.~./.).",
"^.).).).).).).^.!.!.~.~.).'.'.'././.~.H.N.n.N 6 s.OX6X0X,XP 2 E e.c.$X%X:X8XwXrXrXrXrXrX>X Xn c V.E.!.!.!.!.!.!.!.E.!.Q.~././.'.",
").).).).).).).).^.!.~.).'.'.).)./.C._ { M i * 4 s.OX5X0X*XS 2 L ! d.#X$X$X$X:X:X>X>X7X7X:X#XE > m.Q.E.!.!.Q.!.!.Q.Q.E.~.).^.)./.",
").)./.).).)././.^.~.^.).'.'.)./.m.B r i A B * 5 P.oX5X0X1XW - L E ^ k.#X$X$X%X$X$X$X$X#X Xj.b * m.^.!.!.!.!.!.!.Q.!.~.~.).).)./.",
"/./.^.)./.)./.^.~.~.~.^.`.).).F.N < B.XX<XXXP k P.@X5X9X3Xy.= b ! R ^ d.c.c.T.T.c.c.k.f.r.Q : < M.).^.~.!.J.!.Q.Q.Q.^._.).)._.'.",
").).)./././.^.!.E.E.!.~.^./.).n.; y.6X0X0X,XP k ].@X5X9X6XR.e k R R E R Q / / / / ^ ^ R E H & i D.).).).!.Q.J.~.~.^.`.^.).)./.'.",
").)././././.~.!.!.J.Q.!.~.~.~.9.< (.0X6X9X+XA k P.}.2X9X9X,XP + b Q R R E E E E E E R ! J 8 X _ !.).).).~.!.Q.Q.`.`.`.'.^.'.'.^.",
")././././.~.!.Q.!.Q.Q.Q.!.Q.!.] < .X2X*X*XR.B x P.|.2X9X9X6XL.3 o b E Q ! Q Q Q ! E b 9 > X < m.^.).).).^.`.~.^.`.'.'.'.'.'./.'.",
"/.).^.^._.Q.Q.Q.Q.E.Q.Q.~.E.D.) : P.}.[.].a.k H ].|.4X0X9X9X3XK.c ; 2 9 9 8 8 8 8 : & 8 z + V F.^.).).).).~.!.~.).).`.`.`.).`.`.",
")./.^.~.~.Q.Q.Q.Q.Q.!.Q.E.E.H.S % g.].P.P.a.k U ].{.;X9X9X9X0X3X.X[ A w 3 > 3 w N P [ R.K.> N D./.).).).).~.!.~.).).`.`.`.`.`.).",
")./.~.Q.Q.Q.Q.Q.E.!.!.E.E.Q.V.M : l.].].].u.k T ].[.*X9X9X9X9X9X0X4X&X(.L.L.U.(.XX,X5X6X@X3 u H.~.).).).~.~.!.!././.`.`.`.)./.~.",
"^.~.Q.Q.Q.Q.Q.Q.Q.Q.Q.Q.Q.!.N.q 5 z.].P.].t.k Y ].].+X9X9X9X9X9X0X0X8X8X9X9X9X0X0X9X9X5X|.2 w V.~.~.)./.~.E.!.!.!.~././.`./.!.!.",
"^.Q.Q.Q.Q.Q.Q.Q.Q.Q.Q.Q.Q.!.m.0 x P.].P.].w.4 w.].].}.5X9X9X9X9X9X9X9X9X0X0X9X9X6X6X0X3XI.6 0 N.!.~./.~.!.!.!.!.J.!.!././.!.J.J.",
").Q.Q.Q.Q.Q.Q.Q.Q.Q.Q.!.Q.Q.m., H ].].P.].w.= e.[.].|.2X9X9X9X9X9X9X9X9X9X9X9X9X0X6X0X<XP.3 q C.!.~.~.~.!.!.~.!.~.!.~.~.~.!.J.J.",
"/.^.Q.Q.Q.Q.Q.Q.!.Q.!.!.Q.Q.m., K P.].].].Y = e.].P.[.*X9X9X9X9X9X9X9X9X9X9X9X9X6X9X0X+XP., w V.!.^.).~.!.!.!.!.!.~./././.!.!.J.",
"^.^._.Q.Q.Q.E.Q.Q.Q.Q.E.Q.Q.n.< I ].].P.].Y % e.[.].].oX5X9X9X9X9X9X9X9X9X9X9X0X6X0X5XoXh.: u A.~.).)./.~.~.!.!.~./.)./.)./.~.~.",
")./.^._.Q.Q.Q.Q.E.!.E.Q.E.!.n.: Y ].].P.P.~ % t.[.].P.{.;X0X0X9X0X9X9X9X9X9X9X9X9X0X;X|.h.: B S.).).).)./.~.!.~././.).).`./.~.~.",
").'./._.Q.Q.Q.Q.Q.Q.!.E.Q.!.n.> Y ].].P.].Y % t.].].].].}.2X0X0X0X9X9X9X9X6X9X9X0X3X}.].g.6 S E.).).).).)./.~.~./.`.`.`.).`.).).",
").'.).).^.^.!.Q.Q.Q.Q.Q.Q.~.m., I ].P.].P.Y % p.].].].P.].}.;X5X6X6X9X0X0X0X9X8X2XoX[.[.s.% F _.).).).).).)./.~./.`.`.`.).`.).).",
").'.).'.`.^.!.Q.Q.G.Q.!.Q.~.N., K P.].P.P.Y % t.].P.].].P.].{.}.oXOX+X=X=X;X=XOX|.].].[.i.% _ ~.).).).).)./.~.~./.`.`.`.).).`.).",
"'././.'.'.^.~.Q.Q.Q.Q.!.~./.V.0 x x.P.P.P.Y & t.].].].].].P.].].].].].].[.[.].].].].].].u.% ] ~.).).).).~.~.!.J.~./.`.)./.`.).).",
"'.'././.^.`.^.^.!.Q.!.~./.).E.N = l.[.].[.w.= e.].P.].].].].].].].P.].].].].].].].].].].w.= b./.).)./.~.!.!.E.E.J././.).`.)./.).",
"/.'./.'./.'.'./.~.~.^.).).^.~.( + w.x.x.P.w.6 w.].].P.].].P.].].].].].].].[.].].].P.].].I : n.)./.~.~.!.E.!.!.E.!.!.!././.).`./.",
"/./.'./.).)././.^.~./.).).).).V.8 + 4 z x 5 & w.].].].].].].].l.e.K T T ~ a.P.].P.].].x.H 3 M.^.~.~.!.E.E.!.E.!.!.E.!.~././.).`.",
"^.^.'.'.).).).).~.!.~.).).).).~.n.A 3 7 7 * & T ].].].].P.P.].i.k & ; * + U x.].].x.].x.9 i M._.~.!.E.E.!.E.!.!.E.!.Q.Q.~./.).).",
"_.^.)././.).~.~.!.E.!.~./.).).).^.S.M.m.m._ - K P.].].].].].[.u.5 C M.) * K x.].].].[.h.- v S.`.!.!.E.!.!.E.E.E._.E.Q.Q.!.~.).).",
"Q.!.~.^.).^.~.~.!.!.E.!.!.).).~.^.Q.Q.Q.J.0.3 b x.].x.].].].].u.8 ( ).X.> U P.].].P.].a.- F F.Q.E.!.!.E.E.!.E.!.!.Q.Q.Q.Q.Q.~.~.",
"Q.!.!.~.~.~.!._.!.!.!.E.!.~.~.~.Q.Q.Q.Q.J.m.i 9 z.].].].P.].].e.5 ` ~.] ; K x.].P.P.P.r.- o.Q.Q.E.E.!.!.!.E.!.!.Q.Q.Q.Q.Q.Q.Q.~.",
"Q.Q.Q.~.~.!.!.E.!.!.E.!.E.!.!.!.Q.Q.Q.Q.Q.A.B 2 g.[.].].P.].x.H < ] !.b., Z x.[.].].[.I - X.`.Q.!.E.!.E.!.E.!.E.Q.E.Q.Q.Q.Q.Q.Q.",
"!.Q.~./.^.~.!.!.!.E.!.!.!.~.~.!.Q.Q.Q.Q.E.S.F - i.[.].].].[.h.k i V.^.F.c 5 u.l.x.x.a.6 i V.Q.Q.E.!.!.E.E.!.E.!.Q.~.Q.Q.Q.Q.Q.~.",
"!.!./.).).).~.!.!.!.J.!.~./.).~.~.Q.Q.Q.E.E.o.- K ].[.[.[.l.Z + ) ^.).^.] : X & 4 4 + o X.Q.`.Q.E.!.!.!.!.!.E.!.!.Q.E.Q.Q.Q.~./.",
"!.^.).).).)./.!.!.E.J.~././.).).^.~.Q.Q.Q.Q.M.n % K Y Y K 5   M S.).).).~.b.S w 0 0 V b.J.`.`._.!.E.!.E.E._.!.E.Q.!.!.!.Q.^.).).",
").).).'.).).).~.!.J.~.`.`.`.`.`.)._.~.Q.Q.Q.Q.X.0 X o o * 9 W A.^.).'.).'._.Q.E.S.F.Q._.`.`.`.^.Q.F.Q.Q.Q.Q.Q.Q.Q.Q.Q.Q.~.).^.'.",
").).).).).).`.`./.~.~./.`.`.`.`.).).^.~.!.Q.Q.F.S.A.A.M.A.F.!.`./.).'.'.).).^.~.`.Q.`.`.`.`.`.^.`.`.Q.Q.Q.Q.Q.Q.Q.Q.E.^.).).)./.",
").).).).).).`./.~.!./.).`.`.`.`.'.'.'._.~.Q.Q.Q.Q.Q.Q.Q.^.^.~.`.).).'./.^.'.^.~.`.`.`.`.`.`.`.`.`.`._.Q.Q.Q.Q.Q.~.!.^./.'.).).).",
").).`.`.`.'./.~.J.!.!./.`.`.`./.'.'.'.).'.!.Q.Q.Q.Q.^.Q.^.^.~.`./.'./.'.'.'.Q.Q.Q.`._.`.`.`.`.^.`.`.`.`.Q.Q.Q.Q.E.~./.).).'.'.'.",
").).).).).`.~.!.!.E.E././.`.`.).'.'.'.).^.^.^.~.Q.~.^.'._.`.`.`.'.^.`.`.^.Q.Q.Q.Q.Q.`.`.`.`._.'.`.'.'.'.!.!.Q.Q.Q.`.'.'.).'.^.'.",
").).).)././.~.!.J.E.E.J.!./.).`.'.).).).'.'.'._.Q.~.^.^.`.`.`.~.`.`.`.`.~.Q.~.Q.Q.Q.Q.`._.`.`.'.`.`.'.'.`.Q.`.Q.`.`.'._.'.'.'./.",
"'.).).).!.!.E.!.!.!.!.J.J.~./.`.'.'.'.'.'./.^.^.^.^.'./.'.`._.`.^.`.^.Q.Q.E.Q.Q.Q.Q.Q.Q.`.`.`.`.`.'.'.`.`.`.Q.`.'.'.`.'.'.'.'.).",
"'.).).).E.!.!.E.!.E.J.!.!.!.~././.).'.'.'.'.).).'.^./.'.`.'.'.`.`.`.`.Q.Q.Q.Q.Q.Q.Q.Q.Q.Q.Q.`.`.`.`.`._.`.`._.`.'.'.`.'.'.'.^.'."
};
