/* XPM */
static char *_b77b3fc5ff74e36be6412e1d1d559a2TCSI0pMu3lwlVEWR[] = {
/* columns rows colors chars-per-pixel */
"32 32 8 1 ",
"  c #17141B",
". c #6F555C",
"X c #A63BA3",
"o c magenta",
"O c #D765D3",
"+ c #6A83B0",
"@ c #94C9DB",
"# c #D5EAF0",
/* pixels */
"................................",
"................................",
"................................",
"................................",
"................................",
".............      .............",
"...........  OOoooO  ...........",
"..........  OooooooO  ..........",
".......... OooooooooO ..........",
".......    OooO        .........",
"...... oO Oooo ++@@### .........",
"...... oO Oooo +@@@@##@ ........",
"...... oO Oooo ++@@@@@@ ........",
"...... oO Oooo ++++@@@+ ........",
"...... oO Oooo ++++++++ ........",
"...... oO OoooO        .........",
"...... OO OOoooOOOOOOO .........",
"...... OX OOoooooooooo .........",
"...... OX XOOOooooooOO .........",
"...... XX XOOOOOOOOOOO .........",
"..... X   XXXOOOOOOOOX .........",
"..... XXXXXXXXXXXXXXXX .........",
"......  XXXXXXXXXXXXO ..........",
"...... XXXXXXOOXXXXO  ..........",
"...... XXXXXOO  XXO  ...........",
"....... XXO   .    .............",
".......    .....................",
"................................",
"................................",
"................................",
"................................",
"................................"
};
