/* XPM */
static char *_981b02ecfb84f05db9e459ac50c6f55mEFjb8ZVAq5Nnehz[] = {
/* columns rows colors chars-per-pixel */
"32 32 10 1 ",
"  c #6F555C",
". c #17141B",
"X c #ECF5F9",
"o c #94C9DB",
"O c #6A83B0",
"+ c #C71F41",
"@ c #6A204F",
"# c #CFAFB8",
"$ c #302D37",
"% c #464451",
/* pixels */
"                                ",
"                                ",
"                                ",
"                                ",
"       .....                    ",
"      ..XXo..                   ",
"     ..oXooo..                  ",
"     ..ooooO.+.                 ",
"    .+.OooO.@+..                ",
"    .+.OOOO.++.                 ",
"    .+@....@++.. ......         ",
"    .+++++++++.#..++++@.        ",
"    .+++++++++...+.....@..      ",
"    .@++++++++..++.   ..@@.     ",
"    .@@@@+++++..@.      ...     ",
"    ..@@@@@@@+.@@.  . .         ",
"     ...@@@@++.... .....        ",
"     .+@...@@++....++++.        ",
"     ..+@@.@@@@++++++@@.        ",
"       ..@.@@@@@@@@@@@@.        ",
"         ..@@@@@@@@@@@@.        ",
"          .@@@@@....@@@.        ",
"          .@@@@@.$.@@@.         ",
"        %$$.@@@@.$.@@@.$%       ",
"        $$$.@@@.$$$...$$$       ",
"        $$$$....$$$$$$$$$       ",
"         %$$$$$$$$$$$$$%        ",
"           %$$$$$$$$$%          ",
"                                ",
"                                ",
"                                ",
"                                "
};
