/* XPM */
static char *result[] = {
/* columns rows colors chars-per-pixel */
"32 32 234 2 ",
"   c #6F555C",
".  c #6E545B",
"X  c #6D545B",
"o  c #5A494F",
"O  c #493A3F",
"+  c #4A3B41",
"@  c #4A3A40",
"#  c #4D3F44",
"$  c #655157",
"%  c #634D53",
"&  c #21191B",
"*  c black",
"=  c #050404",
"-  c #3A2F33",
";  c #6E555B",
":  c #685157",
">  c #0D0A0B",
",  c #1E2222",
"<  c #6C7980",
"1  c #7C8F98",
"2  c #7D8F98",
"3  c #7D9099",
"4  c #7E9099",
"5  c #7D8F99",
"6  c #788A8D",
"7  c #586666",
"8  c #34282B",
"9  c #302528",
"0  c #010003",
"q  c #5D666E",
"w  c #9BAFB5",
"e  c #9CB0B9",
"r  c #98ADB6",
"t  c #96ACB4",
"y  c #9CB3B6",
"u  c #85989E",
"i  c #414D4F",
"p  c #5C484E",
"a  c #70565D",
"s  c #181214",
"d  c #5B686C",
"f  c #8EA2A7",
"g  c #7E9096",
"h  c #6C7A87",
"j  c #5D6B7B",
"k  c #4E5D6E",
"l  c #4E5E6E",
"z  c #4D5C6E",
"x  c #526172",
"c  c #73858F",
"v  c #84989D",
"b  c #849799",
"n  c #2B3433",
"m  c #3C2E32",
"M  c #6D555C",
"N  c #070505",
"B  c #718085",
"V  c #93A9AD",
"C  c #7A8C92",
"Z  c #7A8D95",
"A  c #798C94",
"S  c #778893",
"D  c #778793",
"F  c #778792",
"G  c #788B93",
"H  c #72848E",
"J  c #6C7E89",
"K  c #8EA4A8",
"L  c #95ACB2",
"P  c #303A3B",
"I  c #292022",
"U  c #6D565C",
"Y  c #060505",
"T  c #717E83",
"R  c #9AB0B3",
"E  c #8CA1A6",
"W  c #7A8E95",
"Q  c #6E828A",
"!  c #647382",
"~  c #637281",
"^  c #637382",
"/  c #637481",
"(  c #667884",
")  c #7F9499",
"_  c #94ABAE",
"`  c #91A7B2",
"'  c #353F42",
"]  c #2A2023",
"[  c #6B545B",
"{  c #728388",
"}  c #94AAAF",
"|  c #6D8089",
" . c #6A7E87",
".. c #6E818A",
"X. c #6D7E88",
"o. c #6D7D88",
"O. c #6E7F89",
"+. c #6C7A89",
"@. c #687685",
"#. c #6A7B87",
"$. c #879AA1",
"%. c #93AAB0",
"&. c #333D40",
"*. c #655057",
"=. c #020202",
"-. c #70858A",
";. c #9AB1B5",
":. c #8FA5A8",
">. c #80949A",
",. c #778A91",
"<. c #677682",
"1. c #657581",
"2. c #667581",
"3. c #667682",
"4. c #677685",
"5. c #899AA3",
"6. c #95A7AE",
"7. c #95A9AB",
"8. c #4C595C",
"9. c #231B1D",
"0. c #655056",
"q. c #76878C",
"w. c #90A5AA",
"e. c #6D7F88",
"r. c #677C88",
"t. c #667C88",
"y. c #6A7C8B",
"u. c #6B7D8C",
"i. c #687886",
"p. c #606F7E",
"a. c #5F6D7C",
"s. c #8697A0",
"d. c #96ACB3",
"f. c #4C5A5E",
"g. c #221A1C",
"h. c #78848A",
"j. c #9BB1B4",
"k. c #93A8AB",
"l. c #88A0A8",
"z. c #7E959F",
"x. c #748895",
"c. c #748795",
"v. c #768995",
"b. c #7E8F99",
"n. c #83949D",
"m. c #92A3AA",
"M. c #94A6AD",
"N. c #95AAB5",
"B. c #4D5A60",
"V. c #75868B",
"C. c #92A8AD",
"Z. c #546575",
"A. c #516272",
"S. c #516071",
"D. c #526071",
"F. c #546475",
"G. c #546474",
"H. c #61707E",
"J. c #8B9CA5",
"K. c #96ABB2",
"L. c #030202",
"P. c #71868C",
"I. c #97AFB2",
"U. c #889CA1",
"Y. c #879CA1",
"T. c #849A9E",
"R. c #7A8B94",
"E. c #798A93",
"W. c #798B93",
"Q. c #788D92",
"!. c #7D9296",
"~. c #8799A1",
"^. c #8FA0A8",
"/. c #97ADB0",
"(. c #4C5A5D",
"). c #634F55",
"_. c #6C7F82",
"`. c #94A9AF",
"'. c #7C8F97",
"]. c #657782",
"[. c #5B6C7A",
"{. c #536274",
"}. c #526173",
"|. c #526273",
" X c #506072",
".X c #4D5D70",
"XX c #6D7C89",
"oX c #90A3A9",
"OX c #83959B",
"+X c #262F34",
"@X c #675159",
"#X c #030203",
"$X c #5F6F72",
"%X c #81929D",
"&X c #84959F",
"*X c #8799A2",
"=X c #889AA2",
"-X c #889AA3",
";X c #899BA3",
":X c #84969F",
">X c #80919B",
",X c #7B8E96",
"<X c #8CA1A7",
"1X c #7C8F99",
"2X c #1F2830",
"3X c #251D1F",
"4X c #181314",
"5X c #232C2E",
"6X c #68767D",
"7X c #95A8AE",
"8X c #93A6AC",
"9X c #94A7AD",
"0X c #96ADAF",
"qX c #8A9FA2",
"wX c #5C6B72",
"eX c #020508",
"rX c #3E3134",
"tX c #604A51",
"yX c #0B0909",
"uX c #2E3538",
"iX c #303739",
"pX c #303639",
"aX c #2F3639",
"sX c #2E3437",
"dX c #323A3C",
"fX c #161B1B",
"gX c #291E21",
"hX c #6D545C",
"jX c #695258",
"kX c #3C3136",
"lX c #2C2224",
"zX c #2B2124",
"xX c #2C2124",
"cX c #534449",
/* pixels */
"                                                                ",
"                                                                ",
"                                                                ",
"                                                                ",
"                                                                ",
"                . X X X X X X X X X X X X X X X .               ",
"            .                                     .             ",
"          .     o O + + + + + + + + + + + + @ # $               ",
"        .   % & * * * * * * * * * * * * * * * * = - ;           ",
"      .   : > , < 1 2 3 4 4 4 4 4 4 4 4 4 5 4 6 7 * 8   .       ",
"      X   9 0 q w e r t t t t t t t t t t t t y u i * p   .     ",
"        a s d f g h j k k k k k k k k k l z x c v b n m   X     ",
"        M N B V C Z A S D S S S S S S D F G H J K L P I   .     ",
"        U Y T R E W Q ! ~ ^ ^ ^ ^ ^ ^ ^ ^ / ( ) _ ` ' ]   .     ",
"        [ = { } |  ...X.o.X.X.X.X.X.X.o.O.+.@.#.$.%.&.I   .     ",
"    .   *.=.-.;.:.>.,.<.1.2.2.2.2.2.2.1.3.4.+.5.6.7.8.9.        ",
"    .   0.=.q.w.e.r.t.y.y.y.y.y.y.y.y.y.u.i.p.a.s.d.f.g.        ",
"    .   0.=.h.j.k.l.z.x.x.x.x.x.x.x.x.c.v.b.n.m.M.N.B.g.        ",
"    .   0.=.V.C.3.Z.A.S.D.D.D.D.D.D.D.D.D.F.G.H.J.K.f.g.        ",
"    .   0.L.P.I.U.Y.T.R.E.E.E.E.E.E.E.E.W.Q.!.~.^./.(.g.        ",
"    .   ).L._.`.'.].[.{.}.|.}.}.}.}.}.}.{. X.XXXoXOX+Xg.        ",
"        @X#X$X%X&Xs.*X=X5.-X-X-X-X-X-X=X;X:X>X,X<X1X2X3X  .     ",
"          4X5X6X7X8X8X8X8X8X8X8X8X8X8X8X8XM.9X0XqXwXeXrX  X     ",
"      .   tXyX* uXiXpXpXpXpXpXpXpXpXpXpXpXaXsXdXfX* gXhX        ",
"        .   jXkXI lXzXzXzXzXzXzXzXzXzXzXzXzXxXlXI cX            ",
"          .                                                     ",
"              . . . . . . . . . . . . . . . . . . .             ",
"                                                                ",
"                                                                ",
"                                                                ",
"                                                                ",
"                                                                "
};
