/* XPM */
static char *ba1d9e0e2b214b04d27c31f9a89b8e75mlkiES3jFt4xbIx2[] = {
/* columns rows colors chars-per-pixel */
"32 32 8 1 ",
"  c #17141B",
". c #6F555C",
"X c gray42",
"o c #6A83B0",
"O c #868686",
"+ c #AEAEAE",
"@ c #94C9DB",
"# c #D5EAF0",
/* pixels */
"................................",
"................................",
"................................",
"................................",
"................................",
"................................",
"................................",
".............      .............",
"...........  OO+++O  ...........",
"..........  O++++++O  ..........",
".......    O++++++++O ..........",
"...... +O  O++O        .........",
"...... +O O+++ oo@@### .........",
"...... +O O+++ o@@@@##@ ........",
"...... +O O+++ oooo@@@o ........",
"...... +O O+++ oooooooo ........",
"...... +O O+++O        .........",
"...... OO O++++OOOOOOO .........",
"...... OX OO++++++++++ .........",
"...... OX XOOO++++++OO .........",
"...... XX XOOOOOOOOOOO .........",
"...... XX XXOOOOOOOOOX .........",
".......    XXXXOOOOO  ..........",
"......... XXXXXXXX   ...........",
"......... XXXXX    X ...........",
"..........     XXXXX ...........",
"..............      ............",
"................................",
"................................",
"................................",
"................................",
"................................"
};
