/* XPM */
static char *d83cfd40689847f0ae4230e5877b8952zvaf1pYWazBM0aiB[] = {
/* columns rows colors chars-per-pixel */
"32 32 8 1 ",
"  c #17141B",
". c #6F555C",
"X c gray42",
"o c #6A83B0",
"O c #868686",
"+ c #AEAEAE",
"@ c #94C9DB",
"# c #D5EAF0",
/* pixels */
"................................",
"................................",
"................................",
"................................",
"..............      ............",
"............  OO+++O  ..........",
"...........  O++++++O  .........",
"........... O++++++++O .........",
"........    O++O        ........",
"....... +O O+++ oo@@### ........",
"....... +O O+++ o@@@@##@ .......",
"....... +O O+++ oo@@@@@@ .......",
"....... +O O+++ oooo@@@o .......",
"....... +O O+++ oooooooo .......",
"....... +O O+++O        ........",
"....... OO OO+++OOOOOOO ........",
"....... OX OO++++++++++ ........",
"....... OX XOOO++++++OO ........",
"....... XX XOOOOOOOOOOO ........",
"....... XX XXOOOOOOOOOX  .......",
"........    XXXOOOXXXX XO ......",
"........ XXXXXXXXXXX  XXO ......",
"........ XXXXXXX    XXXOO ......",
"........ XXXXX  ..   XXOO ......",
".........     .......    .......",
"................................",
"................................",
"................................",
"................................",
"................................",
"................................",
"................................"
};
