/* XPM */
static char *result[] = {
/* columns rows colors chars-per-pixel */
"64 64 170 2 ",
"   c #010000",
".  c #04011E",
"X  c #02062D",
"o  c #1F2221",
"O  c #00333B",
"+  c #490000",
"@  c #560500",
"#  c #600500",
"$  c #690800",
"%  c #720D00",
"&  c #7D1200",
"*  c #6D2C00",
"=  c #7F2100",
"-  c #7B4007",
";  c #020A4F",
":  c #350F58",
">  c #3D0A48",
",  c #021B78",
"<  c #2E1E7D",
"1  c #002D76",
"2  c #4E2773",
"3  c #004247",
"4  c #355055",
"5  c #3D4573",
"6  c #006976",
"7  c #454949",
"8  c #5D747A",
"9  c #6A6F70",
"0  c #6A7877",
"q  c #8F1900",
"w  c #8D3000",
"e  c #923F04",
"r  c #925500",
"t  c #9F5F00",
"y  c #895A07",
"u  c #A64602",
"i  c #B64C00",
"p  c #A84E17",
"a  c #A54C10",
"s  c #9D6319",
"d  c #B56F00",
"f  c #BA7302",
"g  c #94553A",
"h  c #B37029",
"j  c #BE613E",
"k  c #C75600",
"l  c #CE5600",
"z  c #D05C00",
"x  c #C66200",
"c  c #D36300",
"v  c #DA6500",
"b  c #D66B00",
"n  c #D7680A",
"m  c #DB6C06",
"M  c #C97C01",
"N  c #C57905",
"B  c #D07200",
"V  c #DE7600",
"C  c #D76911",
"Z  c #E17D00",
"A  c #D56C2D",
"S  c #C2663E",
"D  c #C56B3D",
"F  c #D26C37",
"G  c #D8723A",
"H  c #A85C44",
"J  c #856453",
"K  c #BA7940",
"L  c #B1694F",
"P  c #847671",
"I  c #CF744F",
"U  c #D18402",
"Y  c #DF8100",
"T  c #D78800",
"R  c #DD8B01",
"E  c #D0830B",
"W  c #D58710",
"Q  c #E58301",
"!  c #EB8C00",
"~  c #E78C05",
"^  c #EB9300",
"/  c #E99206",
"(  c #F09500",
")  c #F69B01",
"_  c #F69E0D",
"`  c #FA9E05",
"'  c #FCA200",
"]  c #F9A10C",
"[  c #C4803C",
"{  c #DE903D",
"}  c #EF9A21",
"|  c #EB982F",
" . c #E89738",
".. c #E39232",
"X. c #D08840",
"o. c #CC8646",
"O. c #F29F43",
"+. c #E6A273",
"@. c #027F8E",
"#. c #454990",
"$. c #447F88",
"%. c #4077A2",
"&. c #7B8788",
"*. c #61A3BE",
"=. c #66B2CB",
"-. c #78BFCE",
";. c #7BC8D7",
":. c #78CFE3",
">. c #7DD7EB",
",. c #7BEDFE",
"<. c #8F9292",
"1. c #929798",
"2. c #9D9E9E",
"3. c #838889",
"4. c #ABAE9F",
"5. c #ADB09F",
"6. c #9EA3A3",
"7. c #A6A7A7",
"8. c #ADAEA1",
"9. c #ABADAB",
"0. c #B0AFA3",
"q. c #AEB1A4",
"w. c #B1B4A6",
"e. c #B3B6A9",
"r. c #B6B9AC",
"t. c #BABDAE",
"y. c #B7B7AA",
"u. c #B2B2B3",
"i. c #BBBEB2",
"p. c #B8BABA",
"a. c #A1B3B5",
"s. c #D4B3A5",
"d. c #BDC0AF",
"f. c #BDC1B3",
"g. c #C0C3B5",
"h. c #C3C6BC",
"j. c #C5C8BE",
"k. c #C8C8BF",
"l. c #87C6D3",
"z. c #85D7E9",
"x. c #80ECFE",
"c. c #8DECFD",
"v. c #86E0F2",
"b. c #91F1FF",
"n. c #ADF0FE",
"m. c #C6C9C0",
"M. c #CBCDC4",
"N. c #CFCECC",
"B. c gray76",
"V. c #CED1C6",
"C. c #CFD2C9",
"Z. c #D3D5CD",
"A. c #D4D4D4",
"S. c #DCDCDA",
"D. c #DADBD4",
"F. c #C1D4D5",
"G. c #E3D4CF",
"H. c #DFE0DB",
"J. c #E0E0DF",
"K. c #DFDFE0",
"L. c #D8EFF1",
"P. c #C7F6FE",
"I. c #D7F8FE",
"U. c #E3E3E2",
"Y. c #EAEAEB",
"T. c #F0F0ED",
"R. c #EEFEFE",
"E. c #F3F3F3",
"W. c #F4FFFF",
"Q. c #FBFBFB",
/* pixels */
"i.f.i.f.p.r.q.8.q.q.8.8.e.i.t.t.t.i.i.i.i.i.t.t.e.e.t.t.i.i.i.t.i.t.d.r.q.q.5.q.q.q.q.r.d.r.f.f.f.f.r.f.f.r.a.q.t.i.f.p.i.f.p.d.",
"f.f.i.i.e.q.8.q.q.q.q.q.q.w.w.i.t.p.f.f.f.s.f.p.t.t.t.p.g.i.f.f.t.t.e.q.q.5.q.q.q.q.q.q.e.f.f.f.p.f.f.f.f.r.d.t.i.i.s.t.f.t.f.t.",
"f.f.i.t.q.q.q.q.8.q.q.q.q.8.0.y.p.s.i.p.f.f.f.r.r.r.i.i.g.i.t.i.t.e.e.w.4.q.5.q.q.q.q.q.u.r.r.d.f.d.f.p.f.r.d.f.i.p.i.i.i.f.t.d.",
"f.p.t.w.q.q.q.q.q.q.q.q.0.q.8.8.y.t.i.i.f.p.e.r.q.8.r.i.f.i.t.t.t.w.q.5.5.5.q.q.q.q.q.q.r.r.r.f.f.f.f.r.f.q.q.e.r.i.i.i.f.f.r.e.",
"t.r.q.q.q.q.q.q.8.q.q.q.q.q.q.q.w.r.i.t.t.e.q.q.8.8.e.i.p.i.r.t.w.q.q.q.5.q.5.q.q.q.q.q.q.5.a.d.r.f.r.f.q.7.q.e.w.r.r.f.t.r.e.q.",
"r.e.q.q.q.q.q.q.q.q.q.q.8.w.q.q.8.w.y.t.t.w.q.q.q.4.8.r.i.i.r.w.q.q.5.5.q.5.4.q.q.q.q.q.w.q.5.d.q.u.f.r.q.q.q.q.q.q.r.f.t.q.q.q.",
"w.q.q.e.q.q.q.q.q.9.q.q.q.q.q.q.q.w.r.t.e.q.q.q.q.8.8.r.i.t.y.w.q.q.q.q.q.q.q.q.q.q.q.q.w.q.q.9.q.f.q.q.q.q.q.q.q.8.e.e.e.q.q.q.",
"r.q.q.q.q.q.q.q.q.q.q.r.q.q.8.q.w.w.y.i.r.w.q.q.w.w.w.r.t.t.y.r.q.5.q.5.q.q.5.q.q.q.q.q.q.d.q.q.r.f.f.q.d.w.q.q.q.q.e.f.e.q.q.q.",
"d.e.q.q.q.q.q.w.q.q.q.q.q.q.q.q.q.w.t.t.e.e.q.w.q.q.r.a.d.d.r.r.q.5.q.q.q.5.q.5.q.q.q.q.w.q.q.w.d.f.f.w.w.e.q.q.8.r.f.f.d.q.q.q.",
"d.t.w.5.e.q.q.5.q.q.q.e.q.q.q.q.e.t.p.t.i.i.r.u.q.q.d.f.f.f.r.r.r.q.5.5.q.q.5.q.5.q.q.q.q.q.r.f.f.f.f.d.d.q.q.q.r.f.d.f.d.d.d.q.",
"f.t.d.e.q.5.q.q.q.q.q.q.q.q.e.t.t.f.f.f.i.f.f.p.r.q.r.f.d.d.f.f.r.q.5.q.q.4.q.q.5.q.q.q.q.q.r.f.f.f.f.f.d.w.e.r.f.f.f.f.d.f.d.e.",
"f.d.t.d.e.q.q.q.q.q.q.q.q.8.e.t.p.f.f.f.f.s.f.f.d.d.f.f.M.m.f.f.f.f.e.q.q.q.q.q.q.q.q.q.q.r.d.f.f.f.f.d.d.d.r.d.f.f.d.d.f.d.f.d.",
"f.f.d.d.d.e.w.q.8.q.w.w.q.e.p.t.f.f.f.B.f.i.t.r.e.Z.Q.S.7.9 X 4 <.u.T.K.r.q.q.q.q.q.q.w.t.d.d.f.p.f.f.d.d.r.q.r.d.f.f.t.f.d.f.f.",
"f.r.d.d.d.e.e.w.w.w.8.w.e.r.t.f.f.f.f.f.p.t.e.q.R.D.      @ - *         D.A.q.q.q.5.w.d.d.d.f.r.d.r.d.p.e.w.5.q.r.r.t.d.d.r.r.f.",
"f.f.f.r.t.f.t.w.q.q.w.e.r.i.t.i.p.f.i.f.i.r.8.E.B.  - [ | _ _ _ }  .h @   1.j.q.q.q.t.f.f.t.f.f.f.d.d.e.q.q.5.q.q.r.f.t.t.i.d.r.",
"r.f.f.f.i.t.t.e.w.w.w.u.i.i.i.i.s.i.i.r.e.w.i.A.  H / ' ' ' ' ' ' ' ]  .J   9 M.e.d.d.f.d.f.r.f.r.r.f.w.q.q.e.5.q.q.e.f.i.f.f.p.",
"f.f.f.r.f.d.f.r.y.w.r.i.p.s.p.f.f.f.t.e.w.q.N.  H n Z ' ' ` ) } D r # @ # 7   2.Z.f.f.f.f.f.r.f.f.d.q.q.q.8.w.q.q.q.u.r.f.f.f.f.",
"r.r.f.r.f.r.d.f.r.0.y.i.f.p.f.f.i.i.w.q.8.w.u.  F c z ^ ' ` E       6 @.6 .     a.D.f.f.f.t.f.f.r.u.q.q.e.q.q.q.q.q.q.q.r.r.t.f.",
"9.d.d.f.r.f.p.r.0.w.w.i.t.f.p.s.t.e.w.q.5.e.  u v c z Q ' R   &.;.v.c.b.P.L.F.9   N.m.f.f.p.f.r.e.q.q.q.r.q.q.q.q.q.w.q.r.f.p.d.",
"q.w.r.r.d.d.d.q.8.e.8.e.r.f.g.i.r.w.8.8.q.m.  D c c c b ' s   z.b.b.,.P.W.R.Q.L.  o U.t.f.f.f.q.q.w.q.q.q.e.w.q.r.q.e.q.4.w.t.r.",
"q.q.e.r.r.d.u.q.w.0.8.8.e.t.t.e.e.w.8.8.H.p.  G c c c c ( y ; =.b.b.,.n.R.R.R.W.a.  E.t.r.p.q.q.q.q.q.w.e.w.q.e.q.e.q.q.q.w.e.r.",
"q.q.q.q.w.e.w.q.e.8.8.0.w.w.e.q.k.D.Q.Q.Y.0 q v n c c z / r , < v.c.c.x.n.I.I.P.l.  K.i.e.q.q.q.q.q.e.w.q.q.w.e.q.w.e.8.r.r.8.q.",
"q.q.8.q.w.q.w.q.q.w.w.0.w.e.e.U.A.O         u n z c c l / t 1 < =.b.c.c.x.,.,.,.;.  S.B.r.e.q.e.q.a.e.w.q.e.q.q.w.8.e.w.4.4.q.w.",
"q.q.e.t.f.r.w.q.8.w.w.w.w.y.V.U.  e p h o.f B z c c c l Q d , #., ;.c.b.b.b.b.b.;.  U.M.t.t.r.q.e.f.q.q.q.q.e.q.w.e.q.q.8.8.t.t.",
"e.e.i.i.i.t.e.w.w.0.8.w.e.f.Z.2.$ F Z Z ! ' ^ z c c c z Q T   2 #., %.=.:.>.>.:.8   Y.V.f.f.m.U.Y.Q.w.w.w.q.w.w.q.q.e.q.q.q.t.f.",
"r.f.p.i.i.i.i.t.w.w.w.r.f.f.V.0 q C z z c ' ! z c c c c b ' d   ; 5 2 : : : >       A.Z.V.E.E.Y.Y.Q.w.w.w.w.w.w.e.q.e.q.e.f.t.f.",
"i.i.f.i.i.i.f.t.d.q.e.s.f.f.C.&.q C c c c ' Q l c c c c c ' ' U *     X X .   X J   p.T.E.Y.E.T.E.Q.q.w.q.w.e.q.w.q.q.e.t.r.p.d.",
"i.i.t.t.t.i.i.i.d.u.u.f.f.f.j.&.% C c c c ` Q z c b c c c ( ' ' ) R R N f f E | ^   9.Y.E.Q.E.S.Q.E.w.w.w.8.w.w.9.q.q.w.f.f.f.r.",
"i.i.t.t.t.i.t.r.q.w.r.d.f.d.j.<.% C c c c ) Z z c c c c z ( ' ' ' ' ' ' ' ] ' ' +.A.E.Q.Q.Y.S.Q.Q.g.i.r.5.q.5.q.q.q.r.q.p.t.r.f.",
"i.t.t.t.t.t.t.e.q.q.w.q.r.d.f.1.% n n z c ) Z z c c c b z ^ ' ^ R U R ( ' ' O.G.E.Q.Q.E.Y.S.Q.Q.g.i.s.t.q.q.q.q.r.u.f.f.f.f.r.t.",
"i.t.t.t.d.t.e.q.q.q.q.q.q.r.f.*.% C v c c ) Z z c c c c k ^ ~ M ! ! R U W o.S.Q.Q.E.E.U.Y.Q.Q.t.i.i.f.f.d.q.q.w.d.d.r.f.d.r.f.r.",
"t.t.t.i.t.e.q.q.q.q.5.q.q.w.f.6.+ A c c z ( Z z c c c c c Q T ' ' ' ) ) Z 6 1.Y.E.U.N.E.Q.i.i.t.t.p.f.f.r.d.w.r.d.f.d.d.f.d.d.d.",
"r.f.r.r.e.q.q.q.q.q.9.q.w.8.y.7.+ C c c c ) Z z c c c c c x ^ ' ' ' ) ^ ' K   s.J.P 9 E.w.t.s.f.f.t.i.p.s.r.e.r.f.f.g.t.g.f.d.d.",
"p.f.r.e.q.q.q.q.q.q.q.8.w.0.r.u.  A c v z ( Q z c c c c c B R ' ' ) ' ' ' d / ' (   1.Z.0.w.y.t.p.f.i.f.t.t.q.e.d.f.i.d.s.f.d.d.",
"f.r.e.q.q.q.q.q.q.q.w.q.8.w.r.u.  A n c z ) Q l c c c c k ! U ! ' ' ' ' f R ' ] O.  2.H.w.0.w.y.s.i.i.i.e.0.w.q.r.t.d.f.f.d.d.q.",
"t.e.q.q.q.q.8.q.q.q.q.e.q.8.t.p.  F z c z ( ! l c c c c l Q ' M R ' ' d T ' ) ' }   u.m.0.4.w.e.r.r.i.t.w.8.q.0.q.w.t.f.f.d.q.q.",
"r.8.q.q.q.q.q.e.q.q.8.q.q.w.j.p.  F c c l ( ! l c c c c c V ' ' M R d U ' ' ' '  .  B.j.w.w.8.w.9.r.t.e.w.q.e.w.q.w.e.r.d.q.q.5.",
"f.8.q.q.8.q.q.q.q.q.q.w.w.w.j.B.  F c c l ( ^ l b c c c c c ^ ' ' U ( ' ' ' ' ' {   N.j.8.9.w.8.e.e.r.e.e.q.e.e.q.q.e.e.q.q.5.5.",
"p.r.q.q.q.q.q.q.q.q.r.q.w.q.j.B.  F c c l ! ) z c c c c c c c Y Q Q Z V V V ^ ' K   Y.j.q.8.w.y.r.t.r.e.q.w.w.w.w.e.t.e.d.q.q.q.",
"r.r.q.q.q.q.q.q.q.q.q.q.w.q.g.A.  I v v z Z Z c c c c c c b ( ` ) b l z l V ' ] # 4 E.q.q.w.w.e.r.f.p.i.e.w.q.w.y.r.f.d.d.d.w.q.",
"f.r.e.q.q.q.q.q.q.q.q.q.q.q.w.Q.  @ p p p = i c c c c c z ( ' ' ' V c c b ( '  .  u.m.w.q.e.e.t.f.f.s.i.t.e.w.r.r.d.d.f.d.f.u.e.",
"f.f.f.e.q.q.q.q.q.q.w.q.q.w.e.D.T.0         u c c c c c b ' ' ' ( k c z Y ' '  .  N.h.e.e.e.i.i.f.f.f.g.i.t.e.r.d.d.d.d.r.d.d.d.",
"f.p.f.t.r.e.q.q.q.4.q.q.q.e.t.d.g.f.j.D.S.  p m c c c z Z ' ' ' M   c c ^ ' ' X.  U.m.e.e.t.f.f.f.p.i.f.f.i.w.r.t.s.d.d.f.f.f.f.",
"f.f.d.d.f.r.q.q.w.4.5.5.w.e.t.d.s.f.f.f.J.  p n c c c z ! ' ` ' t # c c ) ' ' [   Y.h.w.t.f.p.f.f.f.f.p.i.r.r.q.t.g.f.d.d.f.f.e.",
"f.f.r.f.f.r.e.q.4.4.w.w.e.t.t.d.f.d.s.t.M.  a n c c c l ( ' ' ` - w c b ) ` ' h   Q.e.t.i.f.f.f.f.d.f.f.d.w.q.4.e.d.f.f.d.d.a.d.",
"f.r.d.r.d.r.f.r.e.q.w.e.d.i.d.i.f.f.f.i.d.  a n c c c c ( ) ' )   u b b ' ' ' r   Q.i.i.f.f.f.r.t.p.t.e.q.q.q.8.q.q.d.f.d.d.d.d.",
"f.t.f.f.r.d.f.r.e.e.t.f.f.t.f.p.d.f.i.i.e.  u n c c c c ( ' ' ^   i c Z ' ' _ $ 8 Q.t.f.s.f.f.f.i.r.w.w.q.q.q.q.q.q.q.d.f.f.f.d.",
"t.f.f.r.f.f.d.p.t.e.i.i.i.i.f.r.d.r.r.e.q.3 u n c c c c V ) ' Y   x v c ( ' }   2.E.i.i.f.f.f.p.e.e.q.q.q.q.q.q.q.q.q.u.r.d.e.f.",
"e.f.f.t.i.i.s.r.e.e.e.p.f.f.f.i.d.d.9.q.q.9.  L D D D S S S S g 7 j D S L D L   D.M.f.f.f.f.d.d.e.q.q.q.q.q.q.q.q.q.q.q.r.t.f.f.",
"q.r.i.f.y.p.p.e.q.q.8.w.t.t.i.i.d.q.q.q.q.f.&.                                u.U.a.d.f.f.d.d.d.w.8.q.q.q.q.q.q.w.q.q.q.q.r.r.f.",
"q.w.e.y.t.t.r.w.q.q.q.8.e.i.i.i.d.q.5.5.e.q.f.f.N.S.K.U.U.U.Y.L.U.S.U.J.J.Y.T.f.q.q.e.d.f.a.q.q.q.q.q.q.q.q.q.q.q.q.q.q.q.q.e.r.",
"q.w.w.e.y.w.w.w.q.e.e.8.8.e.e.e.q.q.q.d.q.q.e.d.e.q.e.i.w.j.m.j.i.f.t.g.h.t.q.q.q.q.q.q.e.d.d.q.8.w.q.q.q.q.q.q.q.q.q.q.q.q.q.e.",
"q.q.8.w.y.9.w.8.w.e.0.0.w.w.w.8.q.q.q.a.d.q.q.q.q.q.q.q.q.9.w.r.q.q.8.e.q.r.w.w.w.q.q.w.q.w.q.q.q.q.q.q.q.q.e.q.q.q.q.q.q.q.q.q.",
"w.8.y.y.t.e.w.w.w.4.0.w.4.y.y.q.q.q.q.q.q.q.q.q.q.q.q.q.e.r.q.q.e.t.t.e.q.q.w.r.w.q.q.d.f.w.e.q.q.w.q.q.q.q.q.9.q.e.q.q.q.q.q.e.",
"w.w.i.i.i.t.y.9.w.5.5.0.e.t.i.e.w.q.w.q.q.q.q.q.q.e.q.e.q.w.q.q.r.f.p.t.u.q.w.q.q.q.q.f.d.d.e.q.q.q.q.q.q.q.q.q.q.q.q.q.q.q.e.r.",
"q.t.i.i.i.i.t.0.w.5.4.0.g.t.g.d.f.q.q.q.q.q.q.q.q.q.q.e.q.q.q.w.r.f.f.f.d.r.q.q.q.q.r.d.d.d.d.q.q.q.q.q.q.r.q.q.q.q.q.q.q.r.f.f.",
"e.i.i.f.r.d.f.r.w.0.y.d.g.d.d.d.e.e.a.5.q.q.q.q.q.q.r.q.q.w.w.d.p.f.f.f.f.p.r.w.w.f.d.d.d.d.d.d.q.q.q.q.q.q.q.q.q.q.q.q.r.r.p.d.",
"i.i.i.f.f.f.d.d.t.w.y.d.d.d.d.d.f.f.d.q.w.q.q.q.q.w.q.q.w.q.d.d.t.f.f.t.f.f.d.w.r.d.f.d.d.d.d.d.d.r.q.q.q.q.q.q.q.q.8.w.d.f.d.d.",
"i.i.t.p.f.f.d.d.e.w.d.g.d.d.d.y.f.f.d.u.d.q.q.q.q.q.q.q.e.r.r.d.f.f.f.r.r.f.d.w.r.d.d.d.d.d.a.d.d.d.a.q.q.q.q.q.r.9.r.r.f.f.p.d.",
"i.i.f.t.f.f.d.e.0.4.w.r.d.d.d.d.d.f.d.d.d.q.q.q.w.q.u.f.e.d.r.d.t.d.t.f.f.d.q.q.q.r.d.f.d.d.d.d.d.d.d.d.q.q.q.q.q.r.f.f.f.d.d.d.",
"i.i.i.f.f.d.r.q.5.5.5.r.d.d.d.d.f.p.f.p.e.f.e.9.w.r.r.f.d.a.d.r.r.f.d.d.f.w.q.w.q.q.r.d.e.d.d.d.d.e.f.f.q.w.q.q.a.e.d.f.r.f.f.r.",
"i.i.i.f.d.e.e.q.q.q.5.q.5.t.f.d.f.f.f.f.f.f.d.r.q.q.e.d.d.f.d.d.f.d.d.r.q.w.q.q.q.q.q.r.d.f.f.d.f.d.d.f.d.q.e.e.d.f.d.f.f.f.f.f.",
"f.f.i.t.e.e.q.q.q.q.q.q.5.e.d.d.f.f.f.f.f.r.r.r.r.d.r.f.f.e.f.d.d.f.r.e.q.8.q.q.q.q.q.q.a.d.d.d.f.f.f.d.d.d.q.d.d.d.d.d.d.d.f.r.",
"p.f.i.t.q.q.q.q.q.q.q.q.5.e.r.r.r.f.f.f.f.f.d.d.r.p.r.f.d.f.r.f.d.e.d.q.5.q.q.q.q.q.q.q.w.r.a.d.d.d.d.d.d.d.d.d.f.f.d.f.a.d.d.f."
};
